<?xml version="1.0" encoding="UTF-8"?>
<!--Generator: Apple Native CoreSVG 175-->
<!DOCTYPE svg
PUBLIC "-//W3C//DTD SVG 1.1//EN"
       "http://www.w3.org/Graphics/SVG/1.1/DTD/svg11.dtd">
<svg version="1.1" xmlns="http://www.w3.org/2000/svg" xmlns:xlink="http://www.w3.org/1999/xlink" width="3300" height="2200">
 <!--glyph: "uni100441.medium", point size: 100.0, font version: "17.0d12e1", template writer version: "65.1"-->
 <style>.hierarchical-0:primary {fill:#212121}
.hierarchical-1:secondary {fill:#4D4D4D;-sfsymbols-clear-behind:true}

.SFSymbolsPreview212121 {fill:#212121;opacity:1.0}
.SFSymbolsPreview4D4D4D {fill:#4D4D4D;opacity:1.0}
</style>
 <g id="Notes">
  <rect height="2200" id="artboard" style="fill:white;opacity:1" width="3300" x="0" y="0"/>
  <line style="fill:none;stroke:black;opacity:1;stroke-width:0.5;" x1="263" x2="3036" y1="292" y2="292"/>
  <text style="stroke:none;fill:black;font-family:sans-serif;font-size:13;font-weight:bold;" transform="matrix(1 0 0 1 263 322)">Weight/Scale Variations</text>
  <text style="stroke:none;fill:black;font-family:sans-serif;font-size:13;text-anchor:middle;" transform="matrix(1 0 0 1 559.711 322)">Ultralight</text>
  <text style="stroke:none;fill:black;font-family:sans-serif;font-size:13;text-anchor:middle;" transform="matrix(1 0 0 1 856.422 322)">Thin</text>
  <text style="stroke:none;fill:black;font-family:sans-serif;font-size:13;text-anchor:middle;" transform="matrix(1 0 0 1 1153.13 322)">Light</text>
  <text style="stroke:none;fill:black;font-family:sans-serif;font-size:13;text-anchor:middle;" transform="matrix(1 0 0 1 1449.84 322)">Regular</text>
  <text style="stroke:none;fill:black;font-family:sans-serif;font-size:13;text-anchor:middle;" transform="matrix(1 0 0 1 1746.56 322)">Medium</text>
  <text style="stroke:none;fill:black;font-family:sans-serif;font-size:13;text-anchor:middle;" transform="matrix(1 0 0 1 2043.27 322)">Semibold</text>
  <text style="stroke:none;fill:black;font-family:sans-serif;font-size:13;text-anchor:middle;" transform="matrix(1 0 0 1 2339.98 322)">Bold</text>
  <text style="stroke:none;fill:black;font-family:sans-serif;font-size:13;text-anchor:middle;" transform="matrix(1 0 0 1 2636.69 322)">Heavy</text>
  <text style="stroke:none;fill:black;font-family:sans-serif;font-size:13;text-anchor:middle;" transform="matrix(1 0 0 1 2933.4 322)">Black</text>
  <line style="fill:none;stroke:black;opacity:1;stroke-width:0.5;" x1="263" x2="3036" y1="1903" y2="1903"/>
  <g transform="matrix(1 0 0 1 263 1933)">
   <path d="M9.24805 0.830078Q10.8691 0.830078 12.2949 0.214844Q13.7207-0.400391 14.8096-1.49414Q15.8984-2.58789 16.5186-4.01367Q17.1387-5.43945 17.1387-7.05078Q17.1387-8.66211 16.5186-10.0879Q15.8984-11.5137 14.8047-12.6074Q13.7109-13.7012 12.2852-14.3164Q10.8594-14.9316 9.23828-14.9316Q7.62695-14.9316 6.20117-14.3164Q4.77539-13.7012 3.69141-12.6074Q2.60742-11.5137 1.9873-10.0879Q1.36719-8.66211 1.36719-7.05078Q1.36719-5.43945 1.9873-4.01367Q2.60742-2.58789 3.69629-1.49414Q4.78516-0.400391 6.21094 0.214844Q7.63672 0.830078 9.24805 0.830078ZM9.24805-0.654297Q7.91992-0.654297 6.7627-1.14746Q5.60547-1.64062 4.73145-2.51953Q3.85742-3.39844 3.36426-4.56055Q2.87109-5.72266 2.87109-7.05078Q2.87109-8.37891 3.35938-9.54102Q3.84766-10.7031 4.72168-11.582Q5.5957-12.4609 6.75293-12.9541Q7.91016-13.4473 9.23828-13.4473Q10.5762-13.4473 11.7334-12.9541Q12.8906-12.4609 13.7695-11.582Q14.6484-10.7031 15.1465-9.54102Q15.6445-8.37891 15.6445-7.05078Q15.6445-5.72266 15.1514-4.56055Q14.6582-3.39844 13.7842-2.51953Q12.9102-1.64062 11.748-1.14746Q10.5859-0.654297 9.24805-0.654297ZM5.6543-7.05078Q5.6543-6.72852 5.85938-6.52832Q6.06445-6.32812 6.40625-6.32812L8.51562-6.32812L8.51562-4.20898Q8.51562-3.88672 8.71094-3.67676Q8.90625-3.4668 9.23828-3.4668Q9.56055-3.4668 9.77051-3.67676Q9.98047-3.88672 9.98047-4.20898L9.98047-6.32812L12.0898-6.32812Q12.4219-6.32812 12.627-6.52832Q12.832-6.72852 12.832-7.05078Q12.832-7.38281 12.627-7.58789Q12.4219-7.79297 12.0898-7.79297L9.98047-7.79297L9.98047-9.90234Q9.98047-10.2344 9.77051-10.4443Q9.56055-10.6543 9.23828-10.6543Q8.90625-10.6543 8.71094-10.4443Q8.51562-10.2344 8.51562-9.90234L8.51562-7.79297L6.40625-7.79297Q6.06445-7.79297 5.85938-7.58789Q5.6543-7.38281 5.6543-7.05078Z"/>
  </g>
  <g transform="matrix(1 0 0 1 281.867 1933)">
   <path d="M11.709 2.91016Q13.75 2.91016 15.5518 2.12891Q17.3535 1.34766 18.7305-0.0292969Q20.1074-1.40625 20.8887-3.20801Q21.6699-5.00977 21.6699-7.05078Q21.6699-9.0918 20.8887-10.8936Q20.1074-12.6953 18.7305-14.0723Q17.3535-15.4492 15.5469-16.2305Q13.7402-17.0117 11.6992-17.0117Q9.6582-17.0117 7.85645-16.2305Q6.05469-15.4492 4.68262-14.0723Q3.31055-12.6953 2.5293-10.8936Q1.74805-9.0918 1.74805-7.05078Q1.74805-5.00977 2.5293-3.20801Q3.31055-1.40625 4.6875-0.0292969Q6.06445 1.34766 7.86621 2.12891Q9.66797 2.91016 11.709 2.91016ZM11.709 1.25Q9.98047 1.25 8.47656 0.605469Q6.97266-0.0390625 5.83496-1.17676Q4.69727-2.31445 4.05762-3.81836Q3.41797-5.32227 3.41797-7.05078Q3.41797-8.7793 4.05762-10.2832Q4.69727-11.7871 5.83008-12.9297Q6.96289-14.0723 8.4668-14.7119Q9.9707-15.3516 11.6992-15.3516Q13.4277-15.3516 14.9316-14.7119Q16.4355-14.0723 17.5781-12.9297Q18.7207-11.7871 19.3652-10.2832Q20.0098-8.7793 20.0098-7.05078Q20.0098-5.32227 19.3701-3.81836Q18.7305-2.31445 17.5928-1.17676Q16.4551-0.0390625 14.9463 0.605469Q13.4375 1.25 11.709 1.25ZM7.17773-7.05078Q7.17773-6.69922 7.41211-6.47461Q7.64648-6.25 8.01758-6.25L10.8887-6.25L10.8887-3.36914Q10.8887-2.99805 11.1133-2.76855Q11.3379-2.53906 11.6895-2.53906Q12.0605-2.53906 12.29-2.76855Q12.5195-2.99805 12.5195-3.36914L12.5195-6.25L15.4004-6.25Q15.7715-6.25 16.001-6.47461Q16.2305-6.69922 16.2305-7.05078Q16.2305-7.42188 16.001-7.65137Q15.7715-7.88086 15.4004-7.88086L12.5195-7.88086L12.5195-10.752Q12.5195-11.1328 12.29-11.3623Q12.0605-11.5918 11.6895-11.5918Q11.3379-11.5918 11.1133-11.3574Q10.8887-11.123 10.8887-10.752L10.8887-7.88086L8.01758-7.88086Q7.63672-7.88086 7.40723-7.65137Q7.17773-7.42188 7.17773-7.05078Z"/>
  </g>
  <g transform="matrix(1 0 0 1 305.646 1933)">
   <path d="M14.9707 5.66406Q17.0605 5.66406 18.96 5.01465Q20.8594 4.36523 22.4512 3.19336Q24.043 2.02148 25.2197 0.429688Q26.3965-1.16211 27.0459-3.06641Q27.6953-4.9707 27.6953-7.05078Q27.6953-9.14062 27.0459-11.04Q26.3965-12.9395 25.2197-14.5312Q24.043-16.123 22.4512-17.2998Q20.8594-18.4766 18.9551-19.126Q17.0508-19.7754 14.9609-19.7754Q12.8711-19.7754 10.9717-19.126Q9.07227-18.4766 7.48535-17.2998Q5.89844-16.123 4.72168-14.5312Q3.54492-12.9395 2.90039-11.04Q2.25586-9.14062 2.25586-7.05078Q2.25586-4.9707 2.90527-3.06641Q3.55469-1.16211 4.72656 0.429688Q5.89844 2.02148 7.49023 3.19336Q9.08203 4.36523 10.9814 5.01465Q12.8809 5.66406 14.9707 5.66406ZM14.9707 3.84766Q13.1641 3.84766 11.5283 3.2959Q9.89258 2.74414 8.53516 1.74805Q7.17773 0.751953 6.17676-0.610352Q5.17578-1.97266 4.62891-3.6084Q4.08203-5.24414 4.08203-7.05078Q4.08203-8.86719 4.62891-10.5029Q5.17578-12.1387 6.17188-13.501Q7.16797-14.8633 8.52539-15.8594Q9.88281-16.8555 11.5186-17.4023Q13.1543-17.9492 14.9609-17.9492Q16.7773-17.9492 18.4131-17.4023Q20.0488-16.8555 21.4111-15.8594Q22.7734-14.8633 23.7695-13.501Q24.7656-12.1387 25.3174-10.5029Q25.8691-8.86719 25.8691-7.05078Q25.8789-5.24414 25.332-3.6084Q24.7852-1.97266 23.7842-0.610352Q22.7832 0.751953 21.4209 1.74805Q20.0586 2.74414 18.4229 3.2959Q16.7871 3.84766 14.9707 3.84766ZM9.19922-7.05078Q9.19922-6.66992 9.45801-6.4209Q9.7168-6.17188 10.1172-6.17188L14.0625-6.17188L14.0625-2.2168Q14.0625-1.81641 14.3115-1.55762Q14.5605-1.29883 14.9512-1.29883Q15.3516-1.29883 15.6104-1.55273Q15.8691-1.80664 15.8691-2.2168L15.8691-6.17188L19.8242-6.17188Q20.2246-6.17188 20.4785-6.4209Q20.7324-6.66992 20.7324-7.05078Q20.7324-7.46094 20.4785-7.71484Q20.2246-7.96875 19.8242-7.96875L15.8691-7.96875L15.8691-11.9141Q15.8691-12.3242 15.6104-12.583Q15.3516-12.8418 14.9512-12.8418Q14.5605-12.8418 14.3115-12.583Q14.0625-12.3242 14.0625-11.9141L14.0625-7.96875L10.1172-7.96875Q9.70703-7.96875 9.45312-7.71484Q9.19922-7.46094 9.19922-7.05078Z"/>
  </g>
  <text style="stroke:none;fill:black;font-family:sans-serif;font-size:13;font-weight:bold;" transform="matrix(1 0 0 1 263 1953)">Design Variations</text>
  <text style="stroke:none;fill:black;font-family:sans-serif;font-size:13;" transform="matrix(1 0 0 1 263 1971)">Symbols are supported in up to nine weights and three scales.</text>
  <text style="stroke:none;fill:black;font-family:sans-serif;font-size:13;" transform="matrix(1 0 0 1 263 1989)">For optimal layout with text and other symbols, vertically align</text>
  <text style="stroke:none;fill:black;font-family:sans-serif;font-size:13;" transform="matrix(1 0 0 1 263 2007)">symbols with the adjacent text.</text>
  <line style="fill:none;stroke:#00AEEF;stroke-width:0.5;opacity:1.0;" x1="776" x2="776" y1="1919" y2="1933"/>
  <g transform="matrix(1 0 0 1 776 1933)">
   <path d="M3.31055 0.15625Q3.70117 0.15625 3.91602-0.00976562Q4.13086-0.175781 4.26758-0.585938L5.52734-4.0332L11.2891-4.0332L12.5488-0.585938Q12.6855-0.175781 12.9004-0.00976562Q13.1152 0.15625 13.4961 0.15625Q13.8867 0.15625 14.1162-0.0585938Q14.3457-0.273438 14.3457-0.644531Q14.3457-0.869141 14.2383-1.17188L9.6582-13.3691Q9.48242-13.8184 9.17969-14.043Q8.87695-14.2676 8.4082-14.2676Q7.5-14.2676 7.17773-13.3789L2.59766-1.16211Q2.49023-0.859375 2.49023-0.634766Q2.49023-0.263672 2.70996-0.0537109Q2.92969 0.15625 3.31055 0.15625ZM6.00586-5.51758L8.37891-12.0898L8.42773-12.0898L10.8008-5.51758Z"/>
  </g>
  <line style="fill:none;stroke:#00AEEF;stroke-width:0.5;opacity:1.0;" x1="793.197" x2="793.197" y1="1919" y2="1933"/>
  <text style="stroke:none;fill:black;font-family:sans-serif;font-size:13;font-weight:bold;" transform="matrix(1 0 0 1 776 1953)">Margins</text>
  <text style="stroke:none;fill:black;font-family:sans-serif;font-size:13;" transform="matrix(1 0 0 1 776 1971)">Leading and trailing margins on the left and right side of each symbol</text>
  <text style="stroke:none;fill:black;font-family:sans-serif;font-size:13;" transform="matrix(1 0 0 1 776 1989)">can be adjusted by modifying the x-location of the margin guidelines.</text>
  <text style="stroke:none;fill:black;font-family:sans-serif;font-size:13;" transform="matrix(1 0 0 1 776 2007)">Modifications are automatically applied proportionally to all</text>
  <text style="stroke:none;fill:black;font-family:sans-serif;font-size:13;" transform="matrix(1 0 0 1 776 2025)">scales and weights.</text>
  <g transform="matrix(1 0 0 1 1289 1933)">
   <path d="M2.8418 1.86523L4.54102 3.57422Q5.18555 4.22852 5.90332 4.17969Q6.62109 4.13086 7.31445 3.35938L18.0078-8.42773L17.041-9.4043L6.42578 2.27539Q6.16211 2.57812 5.89355 2.61719Q5.625 2.65625 5.27344 2.30469L4.10156 1.14258Q3.75 0.791016 3.79395 0.522461Q3.83789 0.253906 4.14062-0.0195312L15.6152-10.8203L14.6387-11.7871L3.04688-0.898438Q2.30469-0.214844 2.25098 0.498047Q2.19727 1.21094 2.8418 1.86523ZM9.25781-16.3281Q8.94531-16.0254 8.90625-15.6348Q8.86719-15.2441 9.04297-14.9512Q9.21875-14.6777 9.55566-14.541Q9.89258-14.4043 10.3809-14.5215Q11.4746-14.7754 12.5977-14.7314Q13.7207-14.6875 14.7949-13.9844L14.209-12.5293Q13.9551-11.9043 14.0674-11.4404Q14.1797-10.9766 14.5801-10.5664L16.875-8.25195Q17.2363-7.88086 17.5781-7.82227Q17.9199-7.76367 18.3398-7.8418L19.4043-8.03711L20.0684-7.36328L20.0293-6.80664Q20-6.43555 20.1221-6.12305Q20.2441-5.81055 20.6055-5.44922L21.3672-4.70703Q21.7285-4.3457 22.1533-4.33105Q22.5781-4.31641 22.9297-4.66797L25.8398-7.58789Q26.1914-7.93945 26.1816-8.35449Q26.1719-8.76953 25.8105-9.13086L25.0391-9.89258Q24.6875-10.2539 24.3799-10.3857Q24.0723-10.5176 23.7109-10.4883L23.1348-10.4395L22.4902-11.0742L22.7344-12.1973Q22.832-12.6172 22.6953-12.9834Q22.5586-13.3496 22.1191-13.7891L19.9219-15.9766Q18.6719-17.2168 17.2607-17.8369Q15.8496-18.457 14.4189-18.4814Q12.9883-18.5059 11.665-17.959Q10.3418-17.4121 9.25781-16.3281ZM10.752-15.957Q11.6602-16.6211 12.7002-16.9043Q13.7402-17.1875 14.8047-17.085Q15.8691-16.9824 16.8701-16.5137Q17.8711-16.0449 18.7012-15.2051L21.1328-12.793Q21.3086-12.6172 21.3525-12.4512Q21.3965-12.2852 21.3379-12.0312L21.0156-10.5469L22.5195-9.0625L23.5059-9.12109Q23.6914-9.13086 23.7891-9.09668Q23.8867-9.0625 24.0332-8.91602L24.6094-8.33984L22.168-5.89844L21.5918-6.47461Q21.4453-6.62109 21.4062-6.71875Q21.3672-6.81641 21.377-7.01172L21.4453-7.98828L19.9512-9.47266L18.4277-9.21875Q18.1836-9.16992 18.042-9.2041Q17.9004-9.23828 17.7148-9.41406L15.7129-11.416Q15.5176-11.5918 15.4932-11.7529Q15.4688-11.9141 15.5859-12.1875L16.4648-14.2773Q15.293-15.3711 13.8281-15.791Q12.3633-16.2109 10.8398-15.7617Q10.7227-15.7324 10.6885-15.8057Q10.6543-15.8789 10.752-15.957Z"/>
  </g>
  <text style="stroke:none;fill:black;font-family:sans-serif;font-size:13;font-weight:bold;" transform="matrix(1 0 0 1 1289 1953)">Exporting</text>
  <text style="stroke:none;fill:black;font-family:sans-serif;font-size:13;" transform="matrix(1 0 0 1 1289 1971)">Symbols should be outlined when exporting to ensure the</text>
  <text style="stroke:none;fill:black;font-family:sans-serif;font-size:13;" transform="matrix(1 0 0 1 1289 1989)">design is preserved when submitting to Xcode.</text>
  <text id="template-version" style="stroke:none;fill:black;font-family:sans-serif;font-size:13;text-anchor:end;" transform="matrix(1 0 0 1 3036 1933)">Template v.3.0</text>
  <text style="stroke:none;fill:black;font-family:sans-serif;font-size:13;text-anchor:end;" transform="matrix(1 0 0 1 3036 1951)">Requires Xcode 13 or greater</text>
  <text id="descriptive-name" style="stroke:none;fill:black;font-family:sans-serif;font-size:13;text-anchor:end;" transform="matrix(1 0 0 1 3036 1969)">Generated from chart.line.uptrend.xyaxis</text>
  <text style="stroke:none;fill:black;font-family:sans-serif;font-size:13;text-anchor:end;" transform="matrix(1 0 0 1 3036 1987)">Typeset at 100 points</text>
  <text style="stroke:none;fill:black;font-family:sans-serif;font-size:13;" transform="matrix(1 0 0 1 263 726)">Small</text>
  <text style="stroke:none;fill:black;font-family:sans-serif;font-size:13;" transform="matrix(1 0 0 1 263 1156)">Medium</text>
  <text style="stroke:none;fill:black;font-family:sans-serif;font-size:13;" transform="matrix(1 0 0 1 263 1586)">Large</text>
 </g>
 <g id="Guides">
  <g id="H-reference" style="fill:#27AAE1;stroke:none;" transform="matrix(1 0 0 1 339 696)">
   <path d="M0.993347 0L3.6377 0L29.3282-67.1326L30.0301-67.1326L30.0301-70.459L28.1227-70.459ZM11.6882-24.4797L46.9818-24.4797L46.2311-26.7288L12.4382-26.7288ZM55.1193 0L57.7637 0L30.6381-70.459L29.4327-70.459L29.4327-67.1326Z"/>
  </g>
  <line id="Baseline-S" style="fill:none;stroke:#27AAE1;opacity:1;stroke-width:0.5;" x1="263" x2="3036" y1="696" y2="696"/>
  <line id="Capline-S" style="fill:none;stroke:#27AAE1;opacity:1;stroke-width:0.5;" x1="263" x2="3036" y1="625.541" y2="625.541"/>
  <g id="H-reference" style="fill:#27AAE1;stroke:none;" transform="matrix(1 0 0 1 339 1126)">
   <path d="M0.993347 0L3.6377 0L29.3282-67.1326L30.0301-67.1326L30.0301-70.459L28.1227-70.459ZM11.6882-24.4797L46.9818-24.4797L46.2311-26.7288L12.4382-26.7288ZM55.1193 0L57.7637 0L30.6381-70.459L29.4327-70.459L29.4327-67.1326Z"/>
  </g>
  <line id="Baseline-M" style="fill:none;stroke:#27AAE1;opacity:1;stroke-width:0.5;" x1="263" x2="3036" y1="1126" y2="1126"/>
  <line id="Capline-M" style="fill:none;stroke:#27AAE1;opacity:1;stroke-width:0.5;" x1="263" x2="3036" y1="1055.54" y2="1055.54"/>
  <g id="H-reference" style="fill:#27AAE1;stroke:none;" transform="matrix(1 0 0 1 339 1556)">
   <path d="M0.993347 0L3.6377 0L29.3282-67.1326L30.0301-67.1326L30.0301-70.459L28.1227-70.459ZM11.6882-24.4797L46.9818-24.4797L46.2311-26.7288L12.4382-26.7288ZM55.1193 0L57.7637 0L30.6381-70.459L29.4327-70.459L29.4327-67.1326Z"/>
  </g>
  <line id="Baseline-L" style="fill:none;stroke:#27AAE1;opacity:1;stroke-width:0.5;" x1="263" x2="3036" y1="1556" y2="1556"/>
  <line id="Capline-L" style="fill:none;stroke:#27AAE1;opacity:1;stroke-width:0.5;" x1="263" x2="3036" y1="1485.54" y2="1485.54"/>
  <line id="left-margin-Ultralight-S" style="fill:none;stroke:#00AEEF;stroke-width:0.5;opacity:1.0;" x1="509.704" x2="509.704" y1="600.785" y2="720.121"/>
  <line id="right-margin-Ultralight-S" style="fill:none;stroke:#00AEEF;stroke-width:0.5;opacity:1.0;" x1="609.718" x2="609.718" y1="600.785" y2="720.121"/>
  <line id="left-margin-Thin-S" style="fill:none;stroke:#00AEEF;stroke-width:0.5;opacity:1.0;" x1="806.174" x2="806.174" y1="600.785" y2="720.121"/>
  <line id="right-margin-Thin-S" style="fill:none;stroke:#00AEEF;stroke-width:0.5;opacity:1.0;" x1="906.67" x2="906.67" y1="600.785" y2="720.121"/>
  <line id="left-margin-Light-S" style="fill:none;stroke:#00AEEF;stroke-width:0.5;opacity:1.0;" x1="1102.41" x2="1102.41" y1="600.785" y2="720.121"/>
  <line id="right-margin-Light-S" style="fill:none;stroke:#00AEEF;stroke-width:0.5;opacity:1.0;" x1="1203.85" x2="1203.85" y1="600.785" y2="720.121"/>
  <line id="left-margin-Regular-S" style="fill:none;stroke:#00AEEF;stroke-width:0.5;opacity:1.0;" x1="1398.77" x2="1398.77" y1="600.785" y2="720.121"/>
  <line id="right-margin-Regular-S" style="fill:none;stroke:#00AEEF;stroke-width:0.5;opacity:1.0;" x1="1500.92" x2="1500.92" y1="600.785" y2="720.121"/>
  <line id="left-margin-Medium-S" style="fill:none;stroke:#00AEEF;stroke-width:0.5;opacity:1.0;" x1="1694.65" x2="1694.65" y1="600.785" y2="720.121"/>
  <line id="right-margin-Medium-S" style="fill:none;stroke:#00AEEF;stroke-width:0.5;opacity:1.0;" x1="1798.46" x2="1798.46" y1="600.785" y2="720.121"/>
  <line id="left-margin-Semibold-S" style="fill:none;stroke:#00AEEF;stroke-width:0.5;opacity:1.0;" x1="1990.73" x2="1990.73" y1="600.785" y2="720.121"/>
  <line id="right-margin-Semibold-S" style="fill:none;stroke:#00AEEF;stroke-width:0.5;opacity:1.0;" x1="2095.81" x2="2095.81" y1="600.785" y2="720.121"/>
  <line id="left-margin-Bold-S" style="fill:none;stroke:#00AEEF;stroke-width:0.5;opacity:1.0;" x1="2286.6" x2="2286.6" y1="600.785" y2="720.121"/>
  <line id="right-margin-Bold-S" style="fill:none;stroke:#00AEEF;stroke-width:0.5;opacity:1.0;" x1="2393.36" x2="2393.36" y1="600.785" y2="720.121"/>
  <line id="left-margin-Heavy-S" style="fill:none;stroke:#00AEEF;stroke-width:0.5;opacity:1.0;" x1="2582.09" x2="2582.09" y1="600.785" y2="720.121"/>
  <line id="right-margin-Heavy-S" style="fill:none;stroke:#00AEEF;stroke-width:0.5;opacity:1.0;" x1="2691.29" x2="2691.29" y1="600.785" y2="720.121"/>
  <line id="left-margin-Black-S" style="fill:none;stroke:#00AEEF;stroke-width:0.5;opacity:1.0;" x1="2877.71" x2="2877.71" y1="600.785" y2="720.121"/>
  <line id="right-margin-Black-S" style="fill:none;stroke:#00AEEF;stroke-width:0.5;opacity:1.0;" x1="2989.09" x2="2989.09" y1="600.785" y2="720.121"/>
  <line id="left-margin-Ultralight-M" style="fill:none;stroke:#00AEEF;stroke-width:0.5;opacity:1.0;" x1="495.973" x2="495.973" y1="1030.79" y2="1150.12"/>
  <line id="right-margin-Ultralight-M" style="fill:none;stroke:#00AEEF;stroke-width:0.5;opacity:1.0;" x1="623.449" x2="623.449" y1="1030.79" y2="1150.12"/>
  <line id="left-margin-Thin-M" style="fill:none;stroke:#00AEEF;stroke-width:0.5;opacity:1.0;" x1="792.412" x2="792.412" y1="1030.79" y2="1150.12"/>
  <line id="right-margin-Thin-M" style="fill:none;stroke:#00AEEF;stroke-width:0.5;opacity:1.0;" x1="920.432" x2="920.432" y1="1030.79" y2="1150.12"/>
  <line id="left-margin-Light-M" style="fill:none;stroke:#00AEEF;stroke-width:0.5;opacity:1.0;" x1="1088.59" x2="1088.59" y1="1030.79" y2="1150.12"/>
  <line id="right-margin-Light-M" style="fill:none;stroke:#00AEEF;stroke-width:0.5;opacity:1.0;" x1="1217.67" x2="1217.67" y1="1030.79" y2="1150.12"/>
  <line id="left-margin-Regular-M" style="fill:none;stroke:#00AEEF;stroke-width:0.5;opacity:1.0;" x1="1384.9" x2="1384.9" y1="1030.79" y2="1150.12"/>
  <line id="right-margin-Regular-M" style="fill:none;stroke:#00AEEF;stroke-width:0.5;opacity:1.0;" x1="1514.79" x2="1514.79" y1="1030.79" y2="1150.12"/>
  <line id="left-margin-Medium-M" style="fill:none;stroke:#00AEEF;stroke-width:0.5;opacity:1.0;" x1="1680.6" x2="1680.6" y1="1030.79" y2="1150.12"/>
  <line id="right-margin-Medium-M" style="fill:none;stroke:#00AEEF;stroke-width:0.5;opacity:1.0;" x1="1812.51" x2="1812.51" y1="1030.79" y2="1150.12"/>
  <line id="left-margin-Semibold-M" style="fill:none;stroke:#00AEEF;stroke-width:0.5;opacity:1.0;" x1="1976.53" x2="1976.53" y1="1030.79" y2="1150.12"/>
  <line id="right-margin-Semibold-M" style="fill:none;stroke:#00AEEF;stroke-width:0.5;opacity:1.0;" x1="2110" x2="2110" y1="1030.79" y2="1150.12"/>
  <line id="left-margin-Bold-M" style="fill:none;stroke:#00AEEF;stroke-width:0.5;opacity:1.0;" x1="2272.22" x2="2272.22" y1="1030.79" y2="1150.12"/>
  <line id="right-margin-Bold-M" style="fill:none;stroke:#00AEEF;stroke-width:0.5;opacity:1.0;" x1="2407.74" x2="2407.74" y1="1030.79" y2="1150.12"/>
  <line id="left-margin-Heavy-M" style="fill:none;stroke:#00AEEF;stroke-width:0.5;opacity:1.0;" x1="2567.44" x2="2567.44" y1="1030.79" y2="1150.12"/>
  <line id="right-margin-Heavy-M" style="fill:none;stroke:#00AEEF;stroke-width:0.5;opacity:1.0;" x1="2705.94" x2="2705.94" y1="1030.79" y2="1150.12"/>
  <line id="left-margin-Black-M" style="fill:none;stroke:#00AEEF;stroke-width:0.5;opacity:1.0;" x1="2862.82" x2="2862.82" y1="1030.79" y2="1150.12"/>
  <line id="right-margin-Black-M" style="fill:none;stroke:#00AEEF;stroke-width:0.5;opacity:1.0;" x1="3003.98" x2="3003.98" y1="1030.79" y2="1150.12"/>
  <line id="left-margin-Ultralight-L" style="fill:none;stroke:#00AEEF;stroke-width:0.5;opacity:1.0;" x1="477.579" x2="477.579" y1="1460.79" y2="1580.12"/>
  <line id="right-margin-Ultralight-L" style="fill:none;stroke:#00AEEF;stroke-width:0.5;opacity:1.0;" x1="641.843" x2="641.843" y1="1460.79" y2="1580.12"/>
  <line id="left-margin-Thin-L" style="fill:none;stroke:#00AEEF;stroke-width:0.5;opacity:1.0;" x1="773.988" x2="773.988" y1="1460.79" y2="1580.12"/>
  <line id="right-margin-Thin-L" style="fill:none;stroke:#00AEEF;stroke-width:0.5;opacity:1.0;" x1="938.857" x2="938.857" y1="1460.79" y2="1580.12"/>
  <line id="left-margin-Light-L" style="fill:none;stroke:#00AEEF;stroke-width:0.5;opacity:1.0;" x1="1070.11" x2="1070.11" y1="1460.79" y2="1580.12"/>
  <line id="right-margin-Light-L" style="fill:none;stroke:#00AEEF;stroke-width:0.5;opacity:1.0;" x1="1236.16" x2="1236.16" y1="1460.79" y2="1580.12"/>
  <line id="left-margin-Regular-L" style="fill:none;stroke:#00AEEF;stroke-width:0.5;opacity:1.0;" x1="1366.37" x2="1366.37" y1="1460.79" y2="1580.12"/>
  <line id="right-margin-Regular-L" style="fill:none;stroke:#00AEEF;stroke-width:0.5;opacity:1.0;" x1="1533.32" x2="1533.32" y1="1460.79" y2="1580.12"/>
  <line id="left-margin-Medium-L" style="fill:none;stroke:#00AEEF;stroke-width:0.5;opacity:1.0;" x1="1661.97" x2="1661.97" y1="1460.79" y2="1580.12"/>
  <line id="right-margin-Medium-L" style="fill:none;stroke:#00AEEF;stroke-width:0.5;opacity:1.0;" x1="1831.14" x2="1831.14" y1="1460.79" y2="1580.12"/>
  <line id="left-margin-Semibold-L" style="fill:none;stroke:#00AEEF;stroke-width:0.5;opacity:1.0;" x1="1957.82" x2="1957.82" y1="1460.79" y2="1580.12"/>
  <line id="right-margin-Semibold-L" style="fill:none;stroke:#00AEEF;stroke-width:0.5;opacity:1.0;" x1="2128.71" x2="2128.71" y1="1460.79" y2="1580.12"/>
  <line id="left-margin-Bold-L" style="fill:none;stroke:#00AEEF;stroke-width:0.5;opacity:1.0;" x1="2253.41" x2="2253.41" y1="1460.79" y2="1580.12"/>
  <line id="right-margin-Bold-L" style="fill:none;stroke:#00AEEF;stroke-width:0.5;opacity:1.0;" x1="2426.55" x2="2426.55" y1="1460.79" y2="1580.12"/>
  <line id="left-margin-Heavy-L" style="fill:none;stroke:#00AEEF;stroke-width:0.5;opacity:1.0;" x1="2548.48" x2="2548.48" y1="1460.79" y2="1580.12"/>
  <line id="right-margin-Heavy-L" style="fill:none;stroke:#00AEEF;stroke-width:0.5;opacity:1.0;" x1="2724.9" x2="2724.9" y1="1460.79" y2="1580.12"/>
  <line id="left-margin-Black-L" style="fill:none;stroke:#00AEEF;stroke-width:0.5;opacity:1.0;" x1="2843.73" x2="2843.73" y1="1460.79" y2="1580.12"/>
  <line id="right-margin-Black-L" style="fill:none;stroke:#00AEEF;stroke-width:0.5;opacity:1.0;" x1="3023.07" x2="3023.07" y1="1460.79" y2="1580.12"/>
 </g>
 <g id="Symbols">
  <g id="Black-L" transform="matrix(1 0 0 1 2843.73 1556)">
   <path class="hierarchical-0:primary SFSymbolsPreview212121" d="M34.5703-13.5742L60.5957-41.1621Q61.2305-41.8457 61.9629-41.8457Q62.6953-41.8457 63.3301-41.1621L83.3008-19.7266Q85.8887-16.8945 88.6719-15.6494Q91.4551-14.4043 94.3359-14.4043Q100.049-14.4043 105.322-19.6289L131.396-45.9473L139.502-37.7441Q141.65-35.6445 144.189-35.6201Q146.729-35.5957 148.853-37.2559Q150.977-38.916 151.758-41.8457L161.914-79.5898Q162.646-82.3242 161.45-84.6924Q160.254-87.0605 157.886-88.2324Q155.518-89.4043 152.734-88.6719L115.088-78.6133Q112.109-77.832 110.425-75.7568Q108.74-73.6816 108.765-71.1426Q108.789-68.6035 110.938-66.4551L118.652-58.6426L95.752-34.8633Q95.166-34.1797 94.3848-34.1797Q93.6523-34.1797 93.0176-34.9121L73.0469-56.3965Q70.4102-59.2285 67.6514-60.4492Q64.8926-61.6699 62.0117-61.6699Q59.1797-61.6699 56.4941-60.4736Q53.8086-59.2773 51.0254-56.3965L21.7285-26.3672Z"/>
   <path class="hierarchical-1:secondary SFSymbolsPreview4D4D4D" d="M16.0645 22.0703Q16.0645 25.0977 17.9443 26.9775Q19.8242 28.8574 22.9004 28.8574L151.855 28.8574Q156.25 28.8574 159.229 26.0498Q162.207 23.2422 162.207 18.75Q162.207 14.2578 159.229 11.4258Q156.25 8.59375 151.855 8.59375L38.0371 8.59375Q36.3281 8.59375 36.3281 6.88477L36.3281-89.9414Q36.3281-94.3359 33.5205-97.3145Q30.7129-100.293 26.2207-100.293Q21.7285-100.293 18.8965-97.3145Q16.0645-94.3359 16.0645-89.9414Z"/>
  </g>
  <g id="Heavy-L" transform="matrix(1 0 0 1 2548.48 1556)">
   <path class="hierarchical-0:primary SFSymbolsPreview212121" d="M32.0351-14.0579L58.2909-41.5543Q59.0523-42.3531 59.8656-42.3531Q60.6903-42.3531 61.4403-41.5543L82.3555-19.4618Q84.7939-16.8137 87.3928-15.638Q89.9918-14.4623 92.688-14.4623Q98.0202-14.4623 102.971-19.3871L129.264-45.9015L138.05-37.0293Q139.922-35.1952 142.115-35.1765Q144.308-35.1578 146.133-36.6104Q147.957-38.063 148.647-40.6242L158.445-78.0571Q159.085-80.4573 158.05-82.5027Q157.015-84.5482 154.964-85.5587Q152.913-86.5692 150.499-85.9291L113.14-76.1932Q110.542-75.5157 109.071-73.7286Q107.6-71.9414 107.624-69.754Q107.648-67.5667 109.52-65.6944L117.995-57.1327L94.3001-32.6851Q93.5753-31.8977 92.7254-31.8977Q91.9006-31.8977 91.1507-32.7225L70.2232-54.8637Q67.7483-57.4997 65.1737-58.6571Q62.5992-59.8145 59.903-59.8145Q57.2433-59.8145 54.7367-58.6815Q52.2301-57.5485 49.6193-54.8637L20.7031-25.3532Z"/>
   <path class="hierarchical-1:secondary SFSymbolsPreview4D4D4D" d="M16.0645 21.2868Q16.0645 24.0837 17.7944 25.8137Q19.5244 27.5436 22.3587 27.5436L150.6 27.5436Q154.372 27.5436 156.953 25.1049Q159.534 22.6662 159.534 18.808Q159.534 14.949 156.953 12.4916Q154.372 10.0342 150.6 10.0342L35.2715 10.0342Q33.5854 10.0342 33.5854 8.34808L33.5854-89.6767Q33.5854-93.4372 31.1523-96.0239Q28.7193-98.6107 24.8489-98.6107Q20.9793-98.6107 18.5219-96.0239Q16.0645-93.4372 16.0645-89.6767Z"/>
  </g>
  <g id="Bold-L" transform="matrix(1 0 0 1 2253.41 1556)">
   <path class="hierarchical-0:primary SFSymbolsPreview212121" d="M29.1992-14.5996L55.7129-41.9922Q56.6162-42.9199 57.5195-42.9199Q58.4473-42.9199 59.3262-41.9922L81.2988-19.165Q83.5693-16.7236 85.9619-15.625Q88.3545-14.5264 90.8447-14.5264Q95.752-14.5264 100.342-19.1162L126.88-45.8496L136.426-36.2305Q137.988-34.6924 139.795-34.6802Q141.602-34.668 143.091-35.8887Q144.58-37.1094 145.166-39.2578L154.565-76.3428Q155.103-78.3691 154.248-80.0537Q153.394-81.7383 151.697-82.5684Q150-83.3984 147.998-82.8613L110.962-73.4863Q108.789-72.9248 107.556-71.46Q106.323-69.9951 106.348-68.2007Q106.372-66.4062 107.935-64.8438L117.261-55.4443L92.6758-30.249Q91.7969-29.3457 90.8691-29.3457Q89.9414-29.3457 89.0625-30.2734L67.0654-53.1494Q64.7705-55.5664 62.4023-56.6528Q60.0342-57.7393 57.5439-57.7393Q55.0781-57.7393 52.771-56.6772Q50.4639-55.6152 48.0469-53.1494L19.5557-24.2188Z"/>
   <path class="hierarchical-1:secondary SFSymbolsPreview4D4D4D" d="M16.0645 20.4102Q16.0645 22.9492 17.627 24.5117Q19.1895 26.0742 21.7529 26.0742L149.194 26.0742Q152.271 26.0742 154.407 24.0479Q156.543 22.0215 156.543 18.8721Q156.543 15.7227 154.407 13.6841Q152.271 11.6455 149.194 11.6455L32.1777 11.6455Q30.5176 11.6455 30.5176 9.98535L30.5176-89.3799Q30.5176-92.4316 28.5034-94.5801Q26.4893-96.7285 23.3154-96.7285Q20.1416-96.7285 18.103-94.5801Q16.0645-92.4316 16.0645-89.3799Z"/>
  </g>
  <g id="Semibold-L" transform="matrix(1 0 0 1 1957.82 1556)">
   <path class="hierarchical-0:primary SFSymbolsPreview212121" d="M27.2438-14.9727L53.9352-42.2943Q54.9362-43.3113 55.9021-43.3113Q56.9008-43.3113 57.869-42.2943L80.5702-18.9606Q82.7248-16.6611 84.9754-15.6158Q87.2261-14.5706 89.5737-14.5706Q94.1879-14.5706 98.5291-18.9293L125.236-45.8138L135.306-35.6796Q136.655-34.346 138.195-34.338Q139.735-34.33 140.993-35.3909Q142.252-36.4517 142.767-38.3156L151.891-75.161Q152.357-76.9295 151.627-78.3653Q150.896-79.8012 149.444-80.5065Q147.991-81.2119 146.274-80.7465L109.46-71.6202Q107.581-71.1388 106.512-69.8959Q105.444-68.6531 105.468-67.1299Q105.492-65.6067 106.841-64.257L116.754-54.2801L91.5558-28.569Q90.5708-27.5864 89.5897-27.5864Q88.5902-27.5864 87.6228-28.5851L64.888-51.9676Q62.7174-54.2336 60.4916-55.2711Q58.2657-56.3087 55.9174-56.3087Q53.5851-56.3087 51.4156-55.2956Q49.2462-54.2824 46.9627-51.9676L18.7645-23.4367Z"/>
   <path class="hierarchical-1:secondary SFSymbolsPreview4D4D4D" d="M16.0645 19.8059Q16.0645 22.1672 17.5114 23.6141Q18.9583 25.061 21.3356 25.061L148.225 25.061Q150.822 25.061 152.652 23.3192Q154.482 21.5775 154.482 18.9163Q154.482 16.256 152.652 14.5061Q150.822 12.7563 148.225 12.7563L30.0446 12.7563Q28.4027 12.7563 28.4027 11.1137L28.4027-89.1754Q28.4027-91.7381 26.6773-93.5844Q24.9519-95.4308 22.258-95.4308Q19.5641-95.4308 17.8143-93.5844Q16.0645-91.7381 16.0645-89.1754Z"/>
  </g>
  <g id="Medium-L" transform="matrix(1 0 0 1 1661.97 1556)">
   <path class="hierarchical-0:primary SFSymbolsPreview212121" d="M25.7614-15.2557L52.5879-42.5232Q53.6629-43.6073 54.6761-43.6073Q55.7281-43.6073 56.7635-42.5232L80.0179-18.8057Q82.0847-16.6145 84.2274-15.6094Q86.3701-14.6042 88.6101-14.6042Q93.0016-14.6042 97.1542-18.7881L123.989-45.787L134.457-35.2615Q135.645-34.0828 136.982-34.0786Q138.32-34.0744 139.403-35.0136Q140.486-35.9528 140.947-37.6015L149.862-74.2645Q150.275-75.8377 149.639-77.0847Q149.003-78.3318 147.736-78.9433Q146.468-79.5547 144.967-79.1428L108.321-70.2049Q106.664-69.7838 105.72-68.7096Q104.776-67.6353 104.8-66.3177Q104.825-65.0002 106.013-63.8123L116.37-53.3974L90.7066-27.2957Q89.6408-26.252 88.6192-26.252Q87.5664-26.252 86.5311-27.3048L63.237-51.0712Q61.161-53.2227 59.0427-54.2233Q56.9244-55.2238 54.6844-55.2238Q52.4529-55.2238 50.388-54.2477Q48.3231-53.2715 46.1403-51.0712L18.1648-22.8439Z"/>
   <path class="hierarchical-1:secondary SFSymbolsPreview4D4D4D" d="M16.0645 19.3474Q16.0645 21.5744 17.424 22.9336Q18.7836 24.2928 21.0182 24.2928L147.491 24.2928Q149.724 24.2928 151.321 22.7665Q152.918 21.2402 152.918 18.9499Q152.918 16.6603 151.321 15.1295Q149.724 13.5986 147.491 13.5986L28.4279 13.5986Q26.799 13.5986 26.799 11.9698L26.799-89.0205Q26.799-91.2132 25.2926-92.8303Q23.7862-94.4473 21.4561-94.4473Q19.1261-94.4473 17.5953-92.8303Q16.0645-91.2132 16.0645-89.0205Z"/>
  </g>
  <g id="Regular-L" transform="matrix(1 0 0 1 1366.37 1556)">
   <path class="hierarchical-0:primary SFSymbolsPreview212121" d="M23.8281-15.625L50.8301-42.8223Q52.002-43.9941 53.0762-43.9941Q54.1992-43.9941 55.3223-42.8223L79.2969-18.6035Q81.25-16.5527 83.252-15.6006Q85.2539-14.6484 87.3535-14.6484Q91.4551-14.6484 95.3613-18.6035L122.363-45.752L133.35-34.7168Q134.326-33.7402 135.4-33.7402Q136.475-33.7402 137.329-34.5215Q138.184-35.3027 138.574-36.6699L147.217-73.0957Q147.559-74.4141 147.046-75.415Q146.533-76.416 145.508-76.9043Q144.482-77.3926 143.262-77.0508L106.836-68.3594Q105.469-68.0176 104.688-67.1631Q103.906-66.3086 103.931-65.2588Q103.955-64.209 104.932-63.2324L115.869-52.2461L89.5996-25.6348Q88.4277-24.5117 87.3535-24.5117Q86.2305-24.5117 85.1074-25.6348L61.084-49.9023Q59.1309-51.9043 57.1533-52.8564Q55.1758-53.8086 53.0762-53.8086Q50.9766-53.8086 49.0479-52.8809Q47.1191-51.9531 45.0684-49.9023L17.3828-22.0703Z"/>
   <path class="hierarchical-1:secondary SFSymbolsPreview4D4D4D" d="M16.0645 18.75Q16.0645 20.8008 17.3096 22.0459Q18.5547 23.291 20.6055 23.291L146.533 23.291Q148.291 23.291 149.585 22.0459Q150.879 20.8008 150.879 18.9941Q150.879 17.1875 149.585 15.9424Q148.291 14.6973 146.533 14.6973L26.3184 14.6973Q24.707 14.6973 24.707 13.0859L24.707-88.8184Q24.707-90.5273 23.4863-91.8457Q22.2656-93.1641 20.4102-93.1641Q18.5547-93.1641 17.3096-91.8457Q16.0645-90.5273 16.0645-88.8184Z"/>
  </g>
  <g id="Light-L" transform="matrix(1 0 0 1 1070.11 1556)">
   <path class="hierarchical-0:primary SFSymbolsPreview212121" d="M21.7697-15.7616L48.3627-42.1562Q49.9435-43.737 51.3351-43.737Q52.7611-43.737 54.2931-42.1562L79.3877-17.2264Q81.1897-15.3572 83.0173-14.4958Q84.845-13.6345 86.7477-13.6345Q90.5167-13.6345 94.075-17.2264L122.832-46.1906L134.666-34.3536Q135.431-33.5892 136.271-33.5663Q137.11-33.5434 137.768-34.1278Q138.425-34.7122 138.725-35.7918L146.566-71.5515Q146.832-72.6128 146.433-73.402Q146.033-74.1913 145.228-74.5659Q144.422-74.9405 143.428-74.6895L107.668-66.8152Q106.589-66.5497 106.004-65.8844Q105.42-65.2191 105.46-64.4039Q105.499-63.5887 106.264-62.8235L117.928-51.0956L89.7209-22.5014Q88.1401-20.9549 86.7477-20.9549Q85.3226-20.9549 83.7753-22.5014L58.6624-47.4655Q56.8451-49.3011 55.0419-50.1621Q53.2387-51.0231 51.3351-51.0231Q49.4324-51.0231 47.6551-50.1789Q45.8778-49.3347 44.0086-47.4655L16.9289-20.6024Z"/>
   <path class="hierarchical-1:secondary SFSymbolsPreview4D4D4D" d="M16.0645 19.2039Q16.0645 20.9824 17.128 22.0459Q18.1915 23.1094 19.9699 23.1094L146.655 23.1094Q147.973 23.1094 148.972 22.1897Q149.971 21.27 149.971 19.8418Q149.971 18.4135 148.972 17.5014Q147.973 16.5894 146.655 16.5894L24.0479 16.5894Q22.6784 16.5894 22.6784 15.2199L22.6784-89.8476Q22.6784-91.1331 21.7758-92.1638Q20.8733-93.1946 19.426-93.1946Q17.9489-93.1946 17.0067-92.1638Q16.0645-91.1331 16.0645-89.8476Z"/>
  </g>
  <g id="Thin-L" transform="matrix(1 0 0 1 773.988 1556)">
   <path class="hierarchical-0:primary SFSymbolsPreview212121" d="M19.0468-15.9416L45.0996-41.2758Q47.2206-43.3968 49.0334-43.3968Q50.8598-43.3968 52.932-41.2758L79.5074-15.4045Q81.1096-13.7756 82.7072-13.0344Q84.3048-12.2932 85.9474-12.2932Q89.2754-12.2932 92.3729-15.4045L123.453-46.7712L136.408-33.873Q136.893-33.3885 137.422-33.3359Q137.951-33.2832 138.348-33.6075Q138.746-33.9317 138.926-34.6306L145.705-69.5099Q145.871-70.2309 145.622-70.7397Q145.373-71.2486 144.857-71.4729Q144.342-71.6972 143.649-71.5668L108.769-64.7736Q108.07-64.6072 107.746-64.1922Q107.422-63.7772 107.481-63.2725Q107.541-62.7678 108.025-62.2833L120.65-49.5743L89.8811-18.3578Q87.7602-16.2506 85.9474-16.2506Q84.1209-16.2506 82.0137-18.3578L55.4596-44.2421Q53.8223-45.858 52.2491-46.5992Q50.676-47.3404 49.0334-47.3404Q47.3907-47.3404 45.8138-46.6057Q44.2368-45.871 42.6079-44.2421L16.3284-18.66Z"/>
   <path class="hierarchical-1:secondary SFSymbolsPreview4D4D4D" d="M16.0645 19.8044Q16.0645 21.2227 16.8877 22.0459Q17.7109 22.8691 19.1292 22.8691L146.815 22.8691Q147.552 22.8691 148.161 22.3797Q148.769 21.8903 148.769 20.9625Q148.769 20.0348 148.161 19.5633Q147.552 19.0918 146.815 19.0918L21.0449 19.0918Q19.9966 19.0918 19.9966 18.0428L19.9966-91.2086Q19.9966-91.9334 19.5141-92.5838Q19.0315-93.2343 18.1252-93.2343Q17.1486-93.2343 16.6065-92.5838Q16.0645-91.9334 16.0645-91.2086Z"/>
  </g>
  <g id="Ultralight-L" transform="matrix(1 0 0 1 477.579 1556)">
   <path class="hierarchical-0:primary SFSymbolsPreview212121" d="M17.6521-16.0339L43.428-40.8241Q45.826-43.222 47.8539-43.222Q49.8856-43.222 52.2346-40.8241L79.5692-14.4714Q81.0684-12.9654 82.5481-12.2856Q84.0279-11.6058 85.537-11.6058Q88.6398-11.6058 91.5016-14.4714L123.771-47.0688L137.3-33.6273Q137.641-33.2863 138.012-33.218Q138.382-33.1497 138.646-33.3408Q138.91-33.532 139.028-34.0363L145.264-68.4639Q145.379-69.0102 145.207-69.3756Q145.035-69.7411 144.668-69.8887Q144.301-70.0363 143.761-69.9669L109.334-63.7276Q108.829-63.6131 108.638-63.3263Q108.447-63.0394 108.517-62.6934Q108.587-62.3474 108.928-62.0064L122.045-48.7953L89.9628-16.2346Q87.5648-13.8405 85.537-13.8405Q83.506-13.8405 81.1111-16.2346L53.8185-42.5911Q52.2743-44.0941 50.819-44.7735Q49.3637-45.4529 47.8539-45.4529Q46.3448-45.4529 44.87-44.775Q43.3952-44.0971 41.89-42.5911L16.0202-17.6659Z"/>
   <path class="hierarchical-1:secondary SFSymbolsPreview4D4D4D" d="M16.0645 20.1126Q16.0645 21.3455 16.7648 22.0459Q17.4652 22.7463 18.6981 22.7463L146.896 22.7463Q147.337 22.7463 147.746 22.4773Q148.154 22.2084 148.154 21.537Q148.154 20.8656 147.746 20.6196Q147.337 20.3735 146.896 20.3735L19.5068 20.3735Q18.6218 20.3735 18.6218 19.4885L18.6218-91.906Q18.6218-92.3439 18.3548-92.7994Q18.0878-93.2549 17.4583-93.2549Q16.7381-93.2549 16.4013-92.7994Q16.0645-92.3439 16.0645-91.906Z"/>
  </g>
  <g id="Black-M" transform="matrix(1 0 0 1 2862.82 1126)">
   <path class="hierarchical-0:primary SFSymbolsPreview212121" d="M28.2715-18.1152L48.0957-39.2578Q48.6328-39.8438 49.2188-39.8438Q49.8535-39.8438 50.3418-39.2578L65.3809-22.9492Q67.4805-20.6543 69.7266-19.6533Q71.9727-18.6523 74.3164-18.6523Q78.9551-18.6523 83.2031-22.9004L103.809-43.7012L109.814-37.6465Q111.621-35.8398 113.818-35.8154Q116.016-35.791 117.847-37.207Q119.678-38.623 120.312-41.1133L128.223-70.3613Q128.857-72.7539 127.808-74.7559Q126.758-76.7578 124.731-77.7832Q122.705-78.8086 120.361-78.2227L91.1133-70.4102Q88.623-69.7266 87.1826-67.9443Q85.7422-66.1621 85.7666-63.9648Q85.791-61.7676 87.6465-59.9609L93.2129-54.2969L75.4883-35.7422Q75-35.1562 74.3652-35.1562Q73.7305-35.1562 73.2422-35.791L58.2031-52.0996Q56.0547-54.3945 53.833-55.3711Q51.6113-56.3477 49.2676-56.3477Q46.9727-56.3477 44.7998-55.3955Q42.627-54.4434 40.3809-52.0996L17.5781-28.7598Z"/>
   <path class="hierarchical-1:secondary SFSymbolsPreview4D4D4D" d="M12.4512 10.0098Q12.4512 12.4512 13.9648 13.9648Q15.4785 15.4785 17.9688 15.4785L118.799 15.4785Q122.607 15.4785 125.146 13.0859Q127.686 10.6934 127.686 6.83594Q127.686 2.92969 125.146 0.537109Q122.607-1.85547 118.799-1.85547L31.0547-1.85547Q29.7852-1.85547 29.7852-3.125L29.7852-78.1738Q29.7852-81.9824 27.3926-84.5459Q25-87.1094 21.1426-87.1094Q17.2363-87.1094 14.8438-84.5459Q12.4512-81.9824 12.4512-78.1738Z"/>
  </g>
  <g id="Heavy-M" transform="matrix(1 0 0 1 2567.44 1126)">
   <path class="hierarchical-0:primary SFSymbolsPreview212121" d="M26.2428-18.5532L46.3783-39.7881Q46.9383-40.3969 47.5479-40.3969Q48.1941-40.3969 48.7167-39.7881L64.447-22.9836Q66.42-20.8389 68.528-19.8898Q70.636-18.9407 72.8294-18.9407Q77.169-18.9407 81.1867-22.9462L101.63-43.5631L108.109-37.0354Q109.696-35.4477 111.6-35.4294Q113.503-35.4111 115.086-36.6596Q116.669-37.9082 117.236-40.1108L124.984-69.2085Q125.539-71.302 124.627-73.0446Q123.715-74.7871 121.948-75.6741Q120.181-76.561 118.137-76.0445L89.0503-68.3815Q86.8484-67.7788 85.5808-66.2331Q84.3132-64.6873 84.3319-62.7838Q84.3506-60.8803 85.9756-59.2926L92.1295-53.064L74.0479-34.2903Q73.513-33.6815 72.8668-33.6815Q72.2321-33.6815 71.698-34.3277L55.9677-51.1314Q53.9459-53.2768 51.8623-54.2072Q49.7787-55.1376 47.5853-55.1376Q45.4285-55.1376 43.388-54.2316Q41.3475-53.3257 39.2403-51.1314L16.6679-28.08Z"/>
   <path class="hierarchical-1:secondary SFSymbolsPreview4D4D4D" d="M12.4512 9.14536Q12.4512 11.4258 13.8611 12.83Q15.271 14.2342 17.5888 14.2342L117.543 14.2342Q120.833 14.2342 123.049 12.141Q125.266 10.0479 125.266 6.70929Q125.266 3.34473 123.049 1.24588Q120.833-0.852966 117.543-0.852966L28.8422-0.852966Q27.5497-0.852966 27.5497-2.14539L27.5497-77.7016Q27.5497-80.9799 25.4509-83.215Q23.3521-85.45 20.0249-85.45Q16.6489-85.45 14.55-83.215Q12.4512-80.9799 12.4512-77.7016Z"/>
  </g>
  <g id="Bold-M" transform="matrix(1 0 0 1 2272.22 1126)">
   <path class="hierarchical-0:primary SFSymbolsPreview212121" d="M23.9746-19.043L44.458-40.3809Q45.0439-41.0156 45.6787-41.0156Q46.3379-41.0156 46.8994-40.3809L63.4033-23.0225Q65.2344-21.0449 67.1875-20.1538Q69.1406-19.2627 71.167-19.2627Q75.1709-19.2627 78.9307-22.998L99.1943-43.4082L106.201-36.3525Q107.544-35.0098 109.119-34.9976Q110.693-34.9854 112-36.0474Q113.306-37.1094 113.794-38.9893L121.362-67.9199Q121.826-69.6777 121.069-71.1304Q120.312-72.583 118.835-73.3154Q117.358-74.0479 115.649-73.6084L86.7432-66.1133Q84.8633-65.6006 83.7891-64.3188Q82.7148-63.0371 82.7271-61.4624Q82.7393-59.8877 84.1064-58.5449L90.918-51.6846L72.4365-32.666Q71.8506-32.0312 71.1914-32.0312Q70.5566-32.0312 69.9707-32.6904L53.4668-50.0488Q51.5869-52.0264 49.6582-52.9053Q47.7295-53.7842 45.7031-53.7842Q43.7012-53.7842 41.8091-52.9297Q39.917-52.0752 37.9639-50.0488L15.6494-27.3193Z"/>
   <path class="hierarchical-1:secondary SFSymbolsPreview4D4D4D" d="M12.4512 8.17871Q12.4512 10.2783 13.7451 11.5601Q15.0391 12.8418 17.1631 12.8418L116.138 12.8418Q118.848 12.8418 120.703 11.084Q122.559 9.32617 122.559 6.56738Q122.559 3.80859 120.703 2.03857Q118.848 0.268555 116.138 0.268555L26.3672 0.268555Q25.0488 0.268555 25.0488-1.0498L25.0488-77.1729Q25.0488-79.8584 23.2788-81.7261Q21.5088-83.5938 18.7744-83.5938Q15.9912-83.5938 14.2212-81.7261Q12.4512-79.8584 12.4512-77.1729Z"/>
  </g>
  <g id="Semibold-M" transform="matrix(1 0 0 1 1976.53 1126)">
   <path class="hierarchical-0:primary SFSymbolsPreview212121" d="M22.4106-19.381L43.1335-40.7898Q43.7378-41.4421 44.3901-41.4421Q45.0584-41.4421 45.6467-40.7898L62.6831-23.0492Q64.4165-21.1868 66.2632-20.3358Q68.1099-19.4847 70.0203-19.4847Q73.793-19.4847 77.3758-23.0339L97.5143-43.3014L104.886-35.8818Q106.06-34.7076 107.408-34.7Q108.756-34.6924 109.871-35.6255Q110.986-36.5585 111.421-38.2164L118.865-67.0311Q119.267-68.5577 118.616-69.8105Q117.966-71.0632 116.689-71.6892Q115.412-72.3152 113.934-71.9284L85.1524-64.5493Q83.4946-64.0984 82.5539-62.999Q81.6132-61.8996 81.6208-60.5515Q81.6284-59.2033 82.8178-58.0292L90.0826-50.7339L71.3257-31.546Q70.7039-30.8937 70.0363-30.8937Q69.4016-30.8937 68.7798-31.562L51.7426-49.3027Q49.9603-51.1642 48.1384-52.0077Q46.3165-52.8511 44.4054-52.8511Q42.5102-52.8511 40.7204-52.0321Q38.9305-51.2131 37.0842-49.3027L14.9475-26.7952Z"/>
   <path class="hierarchical-1:secondary SFSymbolsPreview4D4D4D" d="M12.4512 7.5119Q12.4512 9.48715 13.665 10.6846Q14.8788 11.882 16.8701 11.882L115.169 11.882Q117.479 11.882 119.086 10.3554Q120.692 8.82874 120.692 6.46973Q120.692 4.12827 119.086 2.58484Q117.479 1.04141 115.169 1.04141L24.6613 1.04141Q23.3246 1.04141 23.3246-0.294495L23.3246-76.8082Q23.3246-79.0855 21.7812-80.6999Q20.2377-82.3143 17.9123-82.3143Q15.538-82.3143 13.9946-80.6999Q12.4512-79.0855 12.4512-76.8082Z"/>
  </g>
  <g id="Medium-M" transform="matrix(1 0 0 1 1680.6 1126)">
   <path class="hierarchical-0:primary SFSymbolsPreview212121" d="M21.2242-19.6365L42.1295-41.0995Q42.7467-41.7656 43.4128-41.7656Q44.088-41.7656 44.696-41.0995L62.1376-23.069Q63.797-21.2952 65.5624-20.4742Q67.3279-19.6533 69.1513-19.6533Q72.7493-19.6533 76.1963-23.0606L96.241-43.2205L103.889-35.5247Q104.935-34.4788 106.111-34.4742Q107.287-34.4696 108.257-35.305Q109.228-36.1404 109.622-37.6297L116.972-66.3574Q117.326-67.7086 116.757-68.8099Q116.187-69.9112 115.062-70.4559Q113.937-71.0007 112.634-70.6551L83.9462-63.3629Q82.457-62.9601 81.617-61.9987Q80.777-61.0374 80.7816-59.861Q80.7861-58.6845 81.8405-57.6385L89.4493-50.013L70.4834-30.6969Q69.8349-30.0316 69.1605-30.0316Q68.5257-30.0316 67.8772-30.706L50.4356-48.7366Q48.7274-50.5104 46.9864-51.3271Q45.2454-52.1439 43.4219-52.1439Q41.6077-52.1439 39.8952-51.3515Q38.1828-50.5592 36.4166-48.7366L14.415-26.3977Z"/>
   <path class="hierarchical-1:secondary SFSymbolsPreview4D4D4D" d="M12.4512 7.00684Q12.4512 8.88748 13.6044 10.0208Q14.7575 11.1542 16.6473 11.1542L114.435 11.1542Q116.441 11.1542 117.859 9.80263Q119.277 8.45108 119.277 6.39572Q119.277 4.37088 117.859 2.9995Q116.441 1.62811 114.435 1.62811L23.3673 1.62811Q22.0177 1.62811 22.0177 0.278473L22.0177-76.532Q22.0177-78.4988 20.6459-79.9213Q19.2741-81.3438 17.2585-81.3438Q15.1939-81.3438 13.8226-79.9213Q12.4512-78.4988 12.4512-76.532Z"/>
  </g>
  <g id="Regular-M" transform="matrix(1 0 0 1 1384.9 1126)">
   <path class="hierarchical-0:primary SFSymbolsPreview212121" d="M19.6777-19.9707L40.8203-41.5039Q41.4551-42.1875 42.1387-42.1875Q42.8223-42.1875 43.457-41.5039L61.4258-23.0957Q62.9883-21.4355 64.6484-20.6543Q66.3086-19.873 68.0176-19.873Q71.3867-19.873 74.6582-23.0957L94.5801-43.1152L102.588-35.0586Q103.467-34.1797 104.419-34.1797Q105.371-34.1797 106.152-34.8877Q106.934-35.5957 107.275-36.8652L114.502-65.4785Q114.795-66.6016 114.331-67.5049Q113.867-68.4082 112.939-68.8477Q112.012-69.2871 110.938-68.9941L82.373-61.8164Q81.1035-61.4746 80.3955-60.6934Q79.6875-59.9121 79.6875-58.96Q79.6875-58.0078 80.5664-57.1289L88.623-49.0723L69.3848-29.5898Q68.7012-28.9062 68.0176-28.9062Q67.3828-28.9062 66.6992-29.5898L48.7305-47.998Q47.1191-49.6582 45.4834-50.4395Q43.8477-51.2207 42.1387-51.2207Q40.4297-51.2207 38.8184-50.4639Q37.207-49.707 35.5469-47.998L13.7207-25.8789Z"/>
   <path class="hierarchical-1:secondary SFSymbolsPreview4D4D4D" d="M12.4512 6.34766Q12.4512 8.10547 13.5254 9.15527Q14.5996 10.2051 16.3574 10.2051L113.477 10.2051Q115.088 10.2051 116.26 9.08203Q117.432 7.95898 117.432 6.29883Q117.432 4.6875 116.26 3.54004Q115.088 2.39258 113.477 2.39258L21.6797 2.39258Q20.3125 2.39258 20.3125 1.02539L20.3125-76.1719Q20.3125-77.7344 19.165-78.9062Q18.0176-80.0781 16.4062-80.0781Q14.7461-80.0781 13.5986-78.9062Q12.4512-77.7344 12.4512-76.1719Z"/>
  </g>
  <g id="Light-M" transform="matrix(1 0 0 1 1088.59 1126)">
   <path class="hierarchical-0:primary SFSymbolsPreview212121" d="M17.8314-20.0768L38.6101-40.9134Q39.6233-41.9456 40.5792-41.9456Q41.5359-41.9456 42.5491-40.9134L61.5166-21.8697Q62.9578-20.3606 64.4516-19.6629Q65.9454-18.9651 67.4881-18.9651Q70.5696-18.9651 73.5077-21.8697L95.0043-43.5242L103.783-34.726Q104.465-34.0431 105.214-34.0282Q105.962-34.0134 106.569-34.547Q107.175-35.0807 107.426-36.0626L113.911-64.0862Q114.144-64.9971 113.786-65.7112Q113.428-66.4253 112.697-66.7587Q111.966-67.0921 111.104-66.8747L83.1146-60.424Q82.1175-60.1578 81.5838-59.5505Q81.0501-58.9432 81.065-58.2031Q81.0799-57.4631 81.7772-56.7657L90.4694-48.0431L69.4908-26.7746Q68.4593-25.7278 67.4881-25.7278Q66.5657-25.7278 65.5182-26.7746L46.566-45.8031Q45.0905-47.3274 43.6062-48.0251Q42.1219-48.7228 40.5792-48.7228Q39.0373-48.7228 37.5698-48.0343Q36.1023-47.3457 34.5932-45.8031L13.327-24.5621Z"/>
   <path class="hierarchical-1:secondary SFSymbolsPreview4D4D4D" d="M12.4664 6.75659Q12.4664 8.27179 13.3739 9.15527Q14.2815 10.0388 15.7822 10.0388L113.598 10.0388Q114.816 10.0388 115.722 9.20334Q116.629 8.36792 116.629 7.07092Q116.629 5.79224 115.722 4.94003Q114.816 4.08783 113.598 4.08783L19.6663 4.08783Q18.5112 4.08783 18.5112 2.93274L18.5112-77.095Q18.5112-78.2791 17.6514-79.2015Q16.7915-80.1239 15.5281-80.1239Q14.2014-80.1239 13.3339-79.2015Q12.4664-78.2791 12.4664-77.095Z"/>
  </g>
  <g id="Thin-M" transform="matrix(1 0 0 1 792.412 1126)">
   <path class="hierarchical-0:primary SFSymbolsPreview212121" d="M15.3885-20.2171L35.688-40.1329Q37.2017-41.6252 38.5178-41.6252Q39.8338-41.6252 41.3475-40.1329L61.6364-20.2484Q62.9181-18.9392 64.1914-18.3514Q65.4648-17.7635 66.787-17.7635Q69.4885-17.7635 71.9864-20.2484L95.5643-44.0643L105.365-34.285Q105.787-33.8631 106.264-33.828Q106.742-33.7929 107.119-34.0965Q107.496-34.4002 107.627-35.0021L113.131-62.2444Q113.284-62.8754 113.066-63.3392Q112.848-63.8031 112.377-63.9965Q111.906-64.1899 111.324-64.0724L84.0958-58.5823Q83.4587-58.416 83.1551-58.0391Q82.8514-57.6622 82.8865-57.2021Q82.9216-56.7421 83.3786-56.2851L92.9123-46.682L69.6312-23.0507Q68.1389-21.524 66.787-21.524Q65.4846-21.524 63.9572-23.0507L43.7035-42.9008Q42.4088-44.2444 41.1243-44.8322Q39.8399-45.4201 38.5178-45.4201Q37.1956-45.4201 35.918-44.8215Q34.6405-44.223 33.3321-42.9008L12.8067-22.8203Z"/>
   <path class="hierarchical-1:secondary SFSymbolsPreview4D4D4D" d="M12.4863 7.29675Q12.4863 8.49228 13.1737 9.15527Q13.8611 9.81827 15.0215 9.81827L113.758 9.81827Q114.455 9.81827 115.012 9.36317Q115.569 8.90808 115.569 8.09174Q115.569 7.25403 115.012 6.79207Q114.455 6.33011 113.758 6.33011L17.0044 6.33011Q16.1293 6.33011 16.1293 5.45502L16.1293-78.3165Q16.1293-79.0001 15.6498-79.5918Q15.1703-80.1834 14.3669-80.1834Q13.4804-80.1834 12.9833-79.5918Q12.4863-79.0001 12.4863-78.3165Z"/>
  </g>
  <g id="Ultralight-M" transform="matrix(1 0 0 1 495.973 1126)">
   <path class="hierarchical-0:primary SFSymbolsPreview212121" d="M14.138-20.2888L34.1904-39.7331Q35.9604-41.4612 37.4611-41.4612Q38.9626-41.4612 40.7326-39.7331L61.6982-19.4176Q62.8975-18.2114 64.0583-17.68Q65.2191-17.1486 66.4284-17.1486Q68.9346-17.1486 71.2074-19.4176L95.8519-44.3413L106.175-34.0599Q106.464-33.7708 106.803-33.7254Q107.142-33.68 107.401-33.8657Q107.66-34.0515 107.729-34.4582L112.731-61.3007Q112.843-61.7882 112.696-62.1239Q112.55-62.4596 112.213-62.5813Q111.875-62.7029 111.437-62.6366L84.5978-57.6385Q84.1461-57.5241 83.9603-57.2651Q83.7746-57.0061 83.82-56.6895Q83.8654-56.3728 84.1995-56.0394L94.1628-45.9846L69.7029-21.1433Q67.9749-19.3703 66.4284-19.3703Q64.9307-19.3703 63.1569-21.1433L42.2371-41.4139Q41.0339-42.6651 39.8525-43.1965Q38.6711-43.7279 37.4611-43.7279Q36.2518-43.7279 35.0719-43.1755Q33.8921-42.6231 32.6859-41.4139L12.5397-21.9284Z"/>
   <path class="hierarchical-1:secondary SFSymbolsPreview4D4D4D" d="M12.4969 7.5737Q12.4969 8.60519 13.0714 9.15527Q13.6459 9.70535 14.6317 9.70535L113.84 9.70535Q114.271 9.70535 114.648 9.44519Q115.025 9.18503 115.025 8.61435Q115.025 8.00247 114.648 7.7404Q114.271 7.47833 113.84 7.47833L15.6403 7.47833Q14.9086 7.47833 14.9086 6.74667L14.9086-78.9421Q14.9086-79.3694 14.624-79.792Q14.3394-80.2147 13.7726-80.2147Q13.1111-80.2147 12.804-79.792Q12.4969-79.3694 12.4969-78.9421Z"/>
  </g>
  <g id="Black-S" transform="matrix(1 0 0 1 2877.71 696)">
   <path class="hierarchical-0:primary SFSymbolsPreview212121" d="M22.6562-21.6797L38.0859-38.1836Q38.4766-38.6719 38.9648-38.6719Q39.4531-38.6719 39.8926-38.1836L51.5137-25.5371Q53.2227-23.7305 55.0049-22.9248Q56.7871-22.1191 58.6426-22.1191Q62.3535-22.1191 65.7227-25.4883L82.0312-41.9434L86.6211-37.3047Q88.0859-35.8398 89.8926-35.8154Q91.6992-35.791 93.1885-36.9385Q94.6777-38.0859 95.2148-40.0879L101.416-63.0371Q101.953-64.9902 101.099-66.626Q100.244-68.2617 98.584-69.1162Q96.9238-69.9707 94.9707-69.4336L72.0703-63.3301Q70.0195-62.793 68.8721-61.3281Q67.7246-59.8633 67.749-58.0811Q67.7734-56.2988 69.2383-54.7852L73.4863-50.4883L59.5703-35.8887Q59.2285-35.4492 58.6914-35.4492Q58.2031-35.4492 57.7637-35.9375L46.1426-48.6328Q44.4824-50.4883 42.6758-51.2451Q40.8691-52.002 39.0137-52.002Q37.207-52.002 35.4736-51.2451Q33.7402-50.4883 31.9336-48.6328L14.0137-30.2734Z"/>
   <path class="hierarchical-1:secondary SFSymbolsPreview4D4D4D" d="M9.76562 0.488281Q9.76562 2.44141 10.9863 3.66211Q12.207 4.88281 14.1602 4.88281L93.457 4.88281Q96.582 4.88281 98.6572 2.92969Q100.732 0.976562 100.732-2.19727Q100.732-5.37109 98.6572-7.32422Q96.582-9.27734 93.457-9.27734L24.9023-9.27734Q23.9258-9.27734 23.9258-10.2539L23.9258-69.0918Q23.9258-72.2168 21.9727-74.292Q20.0195-76.3672 16.8457-76.3672Q13.6719-76.3672 11.7188-74.292Q9.76562-72.2168 9.76562-69.0918Z"/>
  </g>
  <g id="Heavy-S" transform="matrix(1 0 0 1 2582.09 696)">
   <path class="hierarchical-0:primary SFSymbolsPreview212121" d="M21.1578-22.0367L36.8988-38.7138Q37.278-39.1678 37.7434-39.1678Q38.2088-39.1678 38.6246-38.7138L50.7072-25.7217Q52.3239-24.0189 54.0081-23.2475Q55.6923-22.4762 57.444-22.4762Q60.936-22.4762 64.1441-25.6844L80.1064-41.7702L85.0189-36.821Q86.3228-35.5171 87.9047-35.5042Q89.4867-35.4912 90.7856-36.5177Q92.0845-37.5443 92.5644-39.3272L98.719-62.2307Q99.1875-63.9534 98.4425-65.3931Q97.6974-66.8327 96.233-67.5777Q94.7685-68.3228 93.0458-67.8429L70.2034-61.7744Q68.383-61.2831 67.3508-60.0029Q66.3185-58.7227 66.3372-57.1651Q66.3559-55.6076 67.6598-54.2664L72.3221-49.5667L58.326-35.0128Q57.9842-34.5963 57.4814-34.5963Q57.016-34.5963 56.5994-35.0502L44.5175-48.0797Q42.9382-49.8199 41.2354-50.5535Q39.5325-51.2871 37.7808-51.2871Q36.0664-51.2871 34.4307-50.5592Q32.795-49.8314 31.0806-48.0797L13.2988-29.8698Z"/>
   <path class="hierarchical-1:secondary SFSymbolsPreview4D4D4D" d="M9.76562-0.306702Q9.76562 1.54266 10.9116 2.68822Q12.0575 3.83377 13.9069 3.83377L92.3737 3.83377Q95.1073 3.83377 96.9345 2.09961Q98.7617 0.365448 98.7617-2.40479Q98.7617-5.16357 96.9345-6.90346Q95.1073-8.64334 92.3737-8.64334L23.2773-8.64334Q22.2435-8.64334 22.2435-9.66644L22.2435-68.5616Q22.2435-71.283 20.5093-73.1163Q18.7752-74.9496 16.0042-74.9496Q13.2339-74.9496 11.4998-73.1163Q9.76562-71.283 9.76562-68.5616Z"/>
  </g>
  <g id="Bold-S" transform="matrix(1 0 0 1 2286.6 696)">
   <path class="hierarchical-0:primary SFSymbolsPreview212121" d="M19.4824-22.4365L35.5713-39.3066Q35.9375-39.7217 36.377-39.7217Q36.8164-39.7217 37.207-39.3066L49.8047-25.9277Q51.3184-24.3408 52.8931-23.6084Q54.4678-22.876 56.1035-22.876Q59.3506-22.876 62.3779-25.9033L77.9541-41.5771L83.2275-36.2793Q84.3506-35.1562 85.6812-35.1562Q87.0117-35.1562 88.0981-36.0474Q89.1846-36.9385 89.5996-38.4766L95.7031-61.3281Q96.0938-62.793 95.4712-64.0137Q94.8486-65.2344 93.6035-65.8569Q92.3584-66.4795 90.8936-66.0645L68.1152-60.0342Q66.5527-59.5947 65.6494-58.5205Q64.7461-57.4463 64.7583-56.1401Q64.7705-54.834 65.8936-53.6865L71.0205-48.5352L56.9336-34.0332Q56.5918-33.6426 56.1279-33.6426Q55.6885-33.6426 55.2979-34.0576L42.7002-47.4609Q41.2109-49.0723 39.624-49.7803Q38.0371-50.4883 36.4014-50.4883Q34.79-50.4883 33.2642-49.7925Q31.7383-49.0967 30.127-47.4609L12.5-29.4189Z"/>
   <path class="hierarchical-1:secondary SFSymbolsPreview4D4D4D" d="M9.76562-1.19629Q9.76562 0.537109 10.8276 1.59912Q11.8896 2.66113 13.623 2.66113L91.1621 2.66113Q93.457 2.66113 95.0073 1.17188Q96.5576-0.317383 96.5576-2.63672Q96.5576-4.93164 95.0073-6.43311Q93.457-7.93457 91.1621-7.93457L21.46-7.93457Q20.3613-7.93457 20.3613-9.00879L20.3613-67.9688Q20.3613-70.2393 18.8721-71.8018Q17.3828-73.3643 15.0635-73.3643Q12.7441-73.3643 11.2549-71.8018Q9.76562-70.2393 9.76562-67.9688Z"/>
  </g>
  <g id="Semibold-S" transform="matrix(1 0 0 1 1990.73 696)">
   <path class="hierarchical-0:primary SFSymbolsPreview212121" d="M18.3273-22.7119L34.6558-39.7156Q35.0136-40.1039 35.4347-40.1039Q35.8566-40.1039 36.2297-39.7156L49.1829-26.0696Q50.6248-24.5628 52.124-23.8571Q53.6232-23.1514 55.1796-23.1514Q58.2573-23.1514 61.1603-26.0544L76.4702-41.4436L81.9923-35.9062Q82.991-34.9075 84.1484-34.9163Q85.3058-34.9251 86.2453-35.7231Q87.1849-36.5211 87.5557-37.8899L93.6234-60.7063Q93.9606-61.9934 93.4227-63.063Q92.8848-64.1327 91.7908-64.6706Q90.6967-65.2084 89.4096-64.8384L66.6756-58.8341Q65.2908-58.4305 64.4764-57.4986Q63.662-56.5666 63.6696-55.4337Q63.6772-54.3007 64.6759-53.2867L70.1233-47.8241L55.9738-33.358Q55.632-32.9849 55.1949-32.9849Q54.7729-32.9849 54.4006-33.3733L41.4474-47.0345Q40.02-48.5565 38.5132-49.247Q37.0064-49.9374 35.4507-49.9374Q33.9104-49.9374 32.46-49.2638Q31.0097-48.5901 29.4693-47.0345L11.9492-29.1077Z"/>
   <path class="hierarchical-1:secondary SFSymbolsPreview4D4D4D" d="M9.76562-1.80969Q9.76562-0.156403 10.77 0.848007Q11.7744 1.85242 13.4277 1.85242L90.3267 1.85242Q92.3195 1.85242 93.6787 0.53215Q95.0378-0.788116 95.0378-2.79694Q95.0378-4.77142 93.6787-6.10847Q92.3195-7.44553 90.3267-7.44553L20.2072-7.44553Q19.0636-7.44553 19.0636-8.5556L19.0636-67.5598Q19.0636-69.519 17.7433-70.895Q16.423-72.271 14.415-72.271Q12.4062-72.271 11.0859-70.895Q9.76562-69.519 9.76562-67.5598Z"/>
  </g>
  <g id="Medium-S" transform="matrix(1 0 0 1 1694.65 696)">
   <path class="hierarchical-0:primary SFSymbolsPreview212121" d="M17.4515-22.921L33.9622-40.0253Q34.3124-40.3938 34.7206-40.3938Q35.1288-40.3938 35.4881-40.0253L48.7106-26.178Q50.0999-24.7314 51.5415-24.0459Q52.9831-23.3604 54.4785-23.3604Q57.4287-23.3604 60.2371-26.1688L75.3448-41.3429L81.0555-35.6232Q81.9595-34.7191 82.9857-34.7347Q84.0118-34.7504 84.8404-35.4771Q85.6689-36.2038 86.0054-37.4451L92.0471-60.2341Q92.3439-61.3869 91.8697-62.3417Q91.3956-63.2965 90.416-63.7707Q89.4363-64.2448 88.2843-63.9084L65.5838-57.9247Q64.3341-57.5478 63.5868-56.7234Q62.8395-55.899 62.8441-54.8977Q62.8487-53.8963 63.7527-52.9831L69.442-47.2855L55.246-32.8453Q54.9042-32.486 54.4876-32.486Q54.0794-32.486 53.7193-32.8545L40.4968-46.711Q39.1174-48.1659 37.6709-48.8426Q36.2244-49.5193 34.7298-49.5193Q33.2428-49.5193 31.8501-48.8628Q30.4573-48.2063 28.9703-46.711L11.5311-28.8719Z"/>
   <path class="hierarchical-1:secondary SFSymbolsPreview4D4D4D" d="M9.76562-2.27432Q9.76562-0.681305 10.7262 0.278854Q11.6867 1.23901 13.279 1.23901L89.6935 1.23901Q91.4574 1.23901 92.6716 0.0469208Q93.8858-1.14517 93.8858-2.91824Q93.8858-4.65012 92.6716-5.86281Q91.4574-7.0755 89.6935-7.0755L19.2566-7.0755Q18.0801-7.0755 18.0801-8.21152L18.0801-67.2501Q18.0801-68.9735 16.8877-70.208Q15.6952-71.4424 13.9229-71.4424Q12.1506-71.4424 10.9581-70.208Q9.76562-68.9735 9.76562-67.2501Z"/>
  </g>
  <g id="Regular-S" transform="matrix(1 0 0 1 1398.77 696)">
   <path class="hierarchical-0:primary SFSymbolsPreview212121" d="M16.3086-23.1934L33.0566-40.4297Q33.3984-40.7715 33.7891-40.7715Q34.1797-40.7715 34.5215-40.4297L48.0957-26.3184Q49.4141-24.9512 50.7812-24.292Q52.1484-23.6328 53.5645-23.6328Q56.3477-23.6328 59.0332-26.3184L73.877-41.2109L79.834-35.2539Q80.6152-34.4727 81.4697-34.4971Q82.3242-34.5215 83.0078-35.1562Q83.6914-35.791 83.9844-36.8652L89.9902-59.6191Q90.2344-60.5957 89.8438-61.4014Q89.4531-62.207 88.623-62.5977Q87.793-62.9883 86.8164-62.6953L64.1602-56.7383Q63.0859-56.3965 62.4268-55.7129Q61.7676-55.0293 61.7676-54.1992Q61.7676-53.3691 62.5488-52.5879L68.5547-46.582L54.2969-32.1777Q53.9551-31.8359 53.5645-31.8359Q53.1738-31.8359 52.832-32.1777L39.2578-46.2891Q37.9395-47.6562 36.5723-48.3154Q35.2051-48.9746 33.7891-48.9746Q32.373-48.9746 31.0547-48.3398Q29.7363-47.7051 28.3203-46.2891L10.9863-28.5645Z"/>
   <path class="hierarchical-1:secondary SFSymbolsPreview4D4D4D" d="M9.76562-2.88086Q9.76562-1.36719 10.6689-0.463867Q11.5723 0.439453 13.0859 0.439453L88.8672 0.439453Q90.332 0.439453 91.3574-0.585938Q92.3828-1.61133 92.3828-3.07617Q92.3828-4.49219 91.3574-5.54199Q90.332-6.5918 88.8672-6.5918L18.0176-6.5918Q16.7969-6.5918 16.7969-7.76367L16.7969-66.8457Q16.7969-68.2617 15.7715-69.3115Q14.7461-70.3613 13.2812-70.3613Q11.8164-70.3613 10.791-69.3115Q9.76562-68.2617 9.76562-66.8457Z"/>
  </g>
  <g id="Light-S" transform="matrix(1 0 0 1 1102.41 696)">
   <path class="hierarchical-0:primary SFSymbolsPreview212121" d="M14.6736-23.2994L31.089-39.9002Q31.7635-40.5746 32.3967-40.5746Q33.0292-40.5746 33.7044-39.9002L48.156-25.2289Q49.3538-23.9975 50.5848-23.4138Q51.8158-22.8302 53.08-22.8302Q55.6061-22.8302 58.0193-25.2289L74.2554-41.5741L80.8632-34.9663Q81.4781-34.3513 82.151-34.3533Q82.8239-34.3552 83.3561-34.8385Q83.8882-35.3218 84.1057-36.1687L89.4608-58.3778Q89.6591-59.1728 89.3517-59.8045Q89.0442-60.4362 88.3884-60.7437Q87.7327-61.0512 86.953-60.8185L64.8109-55.497Q63.9641-55.246 63.4636-54.7138Q62.9631-54.1817 62.9784-53.5255Q62.9936-52.8694 63.6086-52.2697L70.1744-45.6741L54.3877-29.6799Q53.7277-29.0207 53.08-29.0207Q52.4475-29.0207 51.7723-29.6799L37.3207-44.352Q36.1229-45.5978 34.8919-46.1811Q33.6609-46.7644 32.3967-46.7644Q31.1317-46.7644 29.9347-46.1979Q28.7376-45.6314 27.4727-44.352L10.6079-27.3834Z"/>
   <path class="hierarchical-1:secondary SFSymbolsPreview4D4D4D" d="M9.76562-2.50244Q9.76562-1.21613 10.5251-0.456619Q11.2846 0.302887 12.571 0.302887L88.958 0.302887Q90.0749 0.302887 90.8733-0.472641Q91.6718-1.24817 91.6718-2.39487Q91.6718-3.508 90.8733-4.30069Q90.0749-5.09338 88.958-5.09338L16.201-5.09338Q15.1924-5.09338 15.1924-6.08368L15.1924-67.6628Q15.1924-68.7462 14.4169-69.569Q13.6414-70.3918 12.4939-70.3918Q11.3319-70.3918 10.5488-69.569Q9.76562-68.7462 9.76562-67.6628Z"/>
  </g>
  <g id="Thin-S" transform="matrix(1 0 0 1 806.174 696)">
   <path class="hierarchical-0:primary SFSymbolsPreview212121" d="M12.5122-23.4398L28.4866-39.1991Q29.6021-40.3145 30.555-40.3145Q31.5079-40.3145 32.6233-39.1991L48.2361-23.7869Q49.2737-22.7364 50.3242-22.253Q51.3748-21.7697 52.4399-21.7697Q54.6249-21.7697 56.678-23.7869L74.7559-42.0547L82.2243-34.5863Q82.6187-34.1911 83.0517-34.1629Q83.4846-34.1347 83.8165-34.4181Q84.1484-34.7015 84.2659-35.2478L88.7596-56.7368Q88.8985-57.2914 88.7012-57.6927Q88.504-58.094 88.0783-58.2912Q87.6526-58.4885 87.133-58.3359L65.6715-53.8559Q65.1253-53.7247 64.835-53.3928Q64.5447-53.0609 64.5798-52.6348Q64.6149-52.2087 65.0093-51.8494L72.316-44.4725L54.5074-26.3771Q53.4279-25.2968 52.4399-25.2968Q51.4862-25.2968 50.3716-26.3771L34.758-41.7892Q33.7212-42.8749 32.6702-43.3586Q31.6193-43.8423 30.555-43.8423Q29.4907-43.8423 28.4534-43.3655Q27.4162-42.8886 26.3519-41.7892L10.1074-25.8224Z"/>
   <path class="hierarchical-1:secondary SFSymbolsPreview4D4D4D" d="M9.76562-2.00195Q9.76562-1.01547 10.3352-0.44632Q10.9047 0.122833 11.8904 0.122833L89.0778 0.122833Q89.7346 0.122833 90.2325-0.322342Q90.7303-0.767517 90.7303-1.49384Q90.7303-2.20718 90.2325-2.65923Q89.7346-3.11127 89.0778-3.11127L13.7993-3.11127Q13.0707-3.11127 13.0707-3.86124L13.0707-68.7439Q13.0707-69.3871 12.6251-69.9093Q12.1796-70.4315 11.4532-70.4315Q10.6918-70.4315 10.2287-69.9093Q9.76562-69.3871 9.76562-68.7439Z"/>
  </g>
  <g id="Ultralight-S" transform="matrix(1 0 0 1 509.704 696)">
   <path class="hierarchical-0:primary SFSymbolsPreview212121" d="M11.4044-23.5115L27.153-38.8405Q28.4943-40.181 29.6112-40.181Q30.7289-40.181 32.0694-38.8405L48.2773-23.0492Q49.2325-22.0901 50.1911-21.6579Q51.1497-21.2257 52.1111-21.2257Q54.1229-21.2257 55.9906-23.0492L75.0122-42.3004L82.9216-34.391Q83.2039-34.1095 83.5133-34.0656Q83.8226-34.0218 84.0523-34.2026Q84.2819-34.3834 84.3475-34.7763L88.401-55.8952Q88.5086-56.3271 88.3678-56.6105Q88.2271-56.8939 87.9192-57.0351Q87.6114-57.1762 87.2253-57.0648L66.1125-53.0144Q65.7196-52.9457 65.5373-52.7161Q65.3549-52.4864 65.4003-52.1786Q65.4457-51.8707 65.7272-51.6342L73.4138-43.8576L54.5692-24.6849Q53.2738-23.3894 52.1111-23.3894Q50.9941-23.3894 49.6536-24.6849L33.4457-40.477Q32.4905-41.4803 31.5319-41.9125Q30.5733-42.3447 29.6112-42.3447Q28.6491-42.3447 27.6943-41.9144Q26.7395-41.4841 25.7774-40.477L9.85107-25.0221Z"/>
   <path class="hierarchical-1:secondary SFSymbolsPreview4D4D4D" d="M9.76562-1.74561Q9.76562-0.913239 10.2375-0.44136Q10.7094 0.0305176 11.5417 0.0305176L89.1396 0.0305176Q89.5599 0.0305176 89.9044-0.245667Q90.2489-0.521851 90.2489-1.03302Q90.2489-1.54037 89.9044-1.81847Q89.5599-2.09656 89.1396-2.09656L12.5687-2.09656Q11.9835-2.09656 11.9835-2.72293L11.9835-69.2978Q11.9835-69.7151 11.7073-70.0836Q11.4311-70.4521 10.92-70.4521Q10.363-70.4521 10.0643-70.0836Q9.76562-69.7151 9.76562-69.2978Z"/>
  </g>
 </g>
</svg>
