<?xml version="1.0" encoding="UTF-8"?>
<!--Generator: Apple Native CoreSVG 175-->
<!DOCTYPE svg
PUBLIC "-//W3C//DTD SVG 1.1//EN"
       "http://www.w3.org/Graphics/SVG/1.1/DTD/svg11.dtd">
<svg version="1.1" xmlns="http://www.w3.org/2000/svg" xmlns:xlink="http://www.w3.org/1999/xlink" width="3300" height="2200">
 <!--glyph: "uni10012D.medium", point size: 100.0, font version: "17.0d12e1", template writer version: "65.1"-->
 <g id="Notes">
  <rect height="2200" id="artboard" style="fill:white;opacity:1" width="3300" x="0" y="0"/>
  <line style="fill:none;stroke:black;opacity:1;stroke-width:0.5;" x1="263" x2="3036" y1="292" y2="292"/>
  <text style="stroke:none;fill:black;font-family:sans-serif;font-size:13;font-weight:bold;" transform="matrix(1 0 0 1 263 322)">Weight/Scale Variations</text>
  <text style="stroke:none;fill:black;font-family:sans-serif;font-size:13;text-anchor:middle;" transform="matrix(1 0 0 1 559.711 322)">Ultralight</text>
  <text style="stroke:none;fill:black;font-family:sans-serif;font-size:13;text-anchor:middle;" transform="matrix(1 0 0 1 856.422 322)">Thin</text>
  <text style="stroke:none;fill:black;font-family:sans-serif;font-size:13;text-anchor:middle;" transform="matrix(1 0 0 1 1153.13 322)">Light</text>
  <text style="stroke:none;fill:black;font-family:sans-serif;font-size:13;text-anchor:middle;" transform="matrix(1 0 0 1 1449.84 322)">Regular</text>
  <text style="stroke:none;fill:black;font-family:sans-serif;font-size:13;text-anchor:middle;" transform="matrix(1 0 0 1 1746.56 322)">Medium</text>
  <text style="stroke:none;fill:black;font-family:sans-serif;font-size:13;text-anchor:middle;" transform="matrix(1 0 0 1 2043.27 322)">Semibold</text>
  <text style="stroke:none;fill:black;font-family:sans-serif;font-size:13;text-anchor:middle;" transform="matrix(1 0 0 1 2339.98 322)">Bold</text>
  <text style="stroke:none;fill:black;font-family:sans-serif;font-size:13;text-anchor:middle;" transform="matrix(1 0 0 1 2636.69 322)">Heavy</text>
  <text style="stroke:none;fill:black;font-family:sans-serif;font-size:13;text-anchor:middle;" transform="matrix(1 0 0 1 2933.4 322)">Black</text>
  <line style="fill:none;stroke:black;opacity:1;stroke-width:0.5;" x1="263" x2="3036" y1="1903" y2="1903"/>
  <g transform="matrix(1 0 0 1 263 1933)">
   <path d="M9.24805 0.830078Q10.8691 0.830078 12.2949 0.214844Q13.7207-0.400391 14.8096-1.49414Q15.8984-2.58789 16.5186-4.01367Q17.1387-5.43945 17.1387-7.05078Q17.1387-8.66211 16.5186-10.0879Q15.8984-11.5137 14.8047-12.6074Q13.7109-13.7012 12.2852-14.3164Q10.8594-14.9316 9.23828-14.9316Q7.62695-14.9316 6.20117-14.3164Q4.77539-13.7012 3.69141-12.6074Q2.60742-11.5137 1.9873-10.0879Q1.36719-8.66211 1.36719-7.05078Q1.36719-5.43945 1.9873-4.01367Q2.60742-2.58789 3.69629-1.49414Q4.78516-0.400391 6.21094 0.214844Q7.63672 0.830078 9.24805 0.830078ZM9.24805-0.654297Q7.91992-0.654297 6.7627-1.14746Q5.60547-1.64062 4.73145-2.51953Q3.85742-3.39844 3.36426-4.56055Q2.87109-5.72266 2.87109-7.05078Q2.87109-8.37891 3.35938-9.54102Q3.84766-10.7031 4.72168-11.582Q5.5957-12.4609 6.75293-12.9541Q7.91016-13.4473 9.23828-13.4473Q10.5762-13.4473 11.7334-12.9541Q12.8906-12.4609 13.7695-11.582Q14.6484-10.7031 15.1465-9.54102Q15.6445-8.37891 15.6445-7.05078Q15.6445-5.72266 15.1514-4.56055Q14.6582-3.39844 13.7842-2.51953Q12.9102-1.64062 11.748-1.14746Q10.5859-0.654297 9.24805-0.654297ZM5.6543-7.05078Q5.6543-6.72852 5.85938-6.52832Q6.06445-6.32812 6.40625-6.32812L8.51562-6.32812L8.51562-4.20898Q8.51562-3.88672 8.71094-3.67676Q8.90625-3.4668 9.23828-3.4668Q9.56055-3.4668 9.77051-3.67676Q9.98047-3.88672 9.98047-4.20898L9.98047-6.32812L12.0898-6.32812Q12.4219-6.32812 12.627-6.52832Q12.832-6.72852 12.832-7.05078Q12.832-7.38281 12.627-7.58789Q12.4219-7.79297 12.0898-7.79297L9.98047-7.79297L9.98047-9.90234Q9.98047-10.2344 9.77051-10.4443Q9.56055-10.6543 9.23828-10.6543Q8.90625-10.6543 8.71094-10.4443Q8.51562-10.2344 8.51562-9.90234L8.51562-7.79297L6.40625-7.79297Q6.06445-7.79297 5.85938-7.58789Q5.6543-7.38281 5.6543-7.05078Z"/>
  </g>
  <g transform="matrix(1 0 0 1 281.867 1933)">
   <path d="M11.709 2.91016Q13.75 2.91016 15.5518 2.12891Q17.3535 1.34766 18.7305-0.0292969Q20.1074-1.40625 20.8887-3.20801Q21.6699-5.00977 21.6699-7.05078Q21.6699-9.0918 20.8887-10.8936Q20.1074-12.6953 18.7305-14.0723Q17.3535-15.4492 15.5469-16.2305Q13.7402-17.0117 11.6992-17.0117Q9.6582-17.0117 7.85645-16.2305Q6.05469-15.4492 4.68262-14.0723Q3.31055-12.6953 2.5293-10.8936Q1.74805-9.0918 1.74805-7.05078Q1.74805-5.00977 2.5293-3.20801Q3.31055-1.40625 4.6875-0.0292969Q6.06445 1.34766 7.86621 2.12891Q9.66797 2.91016 11.709 2.91016ZM11.709 1.25Q9.98047 1.25 8.47656 0.605469Q6.97266-0.0390625 5.83496-1.17676Q4.69727-2.31445 4.05762-3.81836Q3.41797-5.32227 3.41797-7.05078Q3.41797-8.7793 4.05762-10.2832Q4.69727-11.7871 5.83008-12.9297Q6.96289-14.0723 8.4668-14.7119Q9.9707-15.3516 11.6992-15.3516Q13.4277-15.3516 14.9316-14.7119Q16.4355-14.0723 17.5781-12.9297Q18.7207-11.7871 19.3652-10.2832Q20.0098-8.7793 20.0098-7.05078Q20.0098-5.32227 19.3701-3.81836Q18.7305-2.31445 17.5928-1.17676Q16.4551-0.0390625 14.9463 0.605469Q13.4375 1.25 11.709 1.25ZM7.17773-7.05078Q7.17773-6.69922 7.41211-6.47461Q7.64648-6.25 8.01758-6.25L10.8887-6.25L10.8887-3.36914Q10.8887-2.99805 11.1133-2.76855Q11.3379-2.53906 11.6895-2.53906Q12.0605-2.53906 12.29-2.76855Q12.5195-2.99805 12.5195-3.36914L12.5195-6.25L15.4004-6.25Q15.7715-6.25 16.001-6.47461Q16.2305-6.69922 16.2305-7.05078Q16.2305-7.42188 16.001-7.65137Q15.7715-7.88086 15.4004-7.88086L12.5195-7.88086L12.5195-10.752Q12.5195-11.1328 12.29-11.3623Q12.0605-11.5918 11.6895-11.5918Q11.3379-11.5918 11.1133-11.3574Q10.8887-11.123 10.8887-10.752L10.8887-7.88086L8.01758-7.88086Q7.63672-7.88086 7.40723-7.65137Q7.17773-7.42188 7.17773-7.05078Z"/>
  </g>
  <g transform="matrix(1 0 0 1 305.646 1933)">
   <path d="M14.9707 5.66406Q17.0605 5.66406 18.96 5.01465Q20.8594 4.36523 22.4512 3.19336Q24.043 2.02148 25.2197 0.429688Q26.3965-1.16211 27.0459-3.06641Q27.6953-4.9707 27.6953-7.05078Q27.6953-9.14062 27.0459-11.04Q26.3965-12.9395 25.2197-14.5312Q24.043-16.123 22.4512-17.2998Q20.8594-18.4766 18.9551-19.126Q17.0508-19.7754 14.9609-19.7754Q12.8711-19.7754 10.9717-19.126Q9.07227-18.4766 7.48535-17.2998Q5.89844-16.123 4.72168-14.5312Q3.54492-12.9395 2.90039-11.04Q2.25586-9.14062 2.25586-7.05078Q2.25586-4.9707 2.90527-3.06641Q3.55469-1.16211 4.72656 0.429688Q5.89844 2.02148 7.49023 3.19336Q9.08203 4.36523 10.9814 5.01465Q12.8809 5.66406 14.9707 5.66406ZM14.9707 3.84766Q13.1641 3.84766 11.5283 3.2959Q9.89258 2.74414 8.53516 1.74805Q7.17773 0.751953 6.17676-0.610352Q5.17578-1.97266 4.62891-3.6084Q4.08203-5.24414 4.08203-7.05078Q4.08203-8.86719 4.62891-10.5029Q5.17578-12.1387 6.17188-13.501Q7.16797-14.8633 8.52539-15.8594Q9.88281-16.8555 11.5186-17.4023Q13.1543-17.9492 14.9609-17.9492Q16.7773-17.9492 18.4131-17.4023Q20.0488-16.8555 21.4111-15.8594Q22.7734-14.8633 23.7695-13.501Q24.7656-12.1387 25.3174-10.5029Q25.8691-8.86719 25.8691-7.05078Q25.8789-5.24414 25.332-3.6084Q24.7852-1.97266 23.7842-0.610352Q22.7832 0.751953 21.4209 1.74805Q20.0586 2.74414 18.4229 3.2959Q16.7871 3.84766 14.9707 3.84766ZM9.19922-7.05078Q9.19922-6.66992 9.45801-6.4209Q9.7168-6.17188 10.1172-6.17188L14.0625-6.17188L14.0625-2.2168Q14.0625-1.81641 14.3115-1.55762Q14.5605-1.29883 14.9512-1.29883Q15.3516-1.29883 15.6104-1.55273Q15.8691-1.80664 15.8691-2.2168L15.8691-6.17188L19.8242-6.17188Q20.2246-6.17188 20.4785-6.4209Q20.7324-6.66992 20.7324-7.05078Q20.7324-7.46094 20.4785-7.71484Q20.2246-7.96875 19.8242-7.96875L15.8691-7.96875L15.8691-11.9141Q15.8691-12.3242 15.6104-12.583Q15.3516-12.8418 14.9512-12.8418Q14.5605-12.8418 14.3115-12.583Q14.0625-12.3242 14.0625-11.9141L14.0625-7.96875L10.1172-7.96875Q9.70703-7.96875 9.45312-7.71484Q9.19922-7.46094 9.19922-7.05078Z"/>
  </g>
  <text style="stroke:none;fill:black;font-family:sans-serif;font-size:13;font-weight:bold;" transform="matrix(1 0 0 1 263 1953)">Design Variations</text>
  <text style="stroke:none;fill:black;font-family:sans-serif;font-size:13;" transform="matrix(1 0 0 1 263 1971)">Symbols are supported in up to nine weights and three scales.</text>
  <text style="stroke:none;fill:black;font-family:sans-serif;font-size:13;" transform="matrix(1 0 0 1 263 1989)">For optimal layout with text and other symbols, vertically align</text>
  <text style="stroke:none;fill:black;font-family:sans-serif;font-size:13;" transform="matrix(1 0 0 1 263 2007)">symbols with the adjacent text.</text>
  <line style="fill:none;stroke:#00AEEF;stroke-width:0.5;opacity:1.0;" x1="776" x2="776" y1="1919" y2="1933"/>
  <g transform="matrix(1 0 0 1 776 1933)">
   <path d="M3.31055 0.15625Q3.70117 0.15625 3.91602-0.00976562Q4.13086-0.175781 4.26758-0.585938L5.52734-4.0332L11.2891-4.0332L12.5488-0.585938Q12.6855-0.175781 12.9004-0.00976562Q13.1152 0.15625 13.4961 0.15625Q13.8867 0.15625 14.1162-0.0585938Q14.3457-0.273438 14.3457-0.644531Q14.3457-0.869141 14.2383-1.17188L9.6582-13.3691Q9.48242-13.8184 9.17969-14.043Q8.87695-14.2676 8.4082-14.2676Q7.5-14.2676 7.17773-13.3789L2.59766-1.16211Q2.49023-0.859375 2.49023-0.634766Q2.49023-0.263672 2.70996-0.0537109Q2.92969 0.15625 3.31055 0.15625ZM6.00586-5.51758L8.37891-12.0898L8.42773-12.0898L10.8008-5.51758Z"/>
  </g>
  <line style="fill:none;stroke:#00AEEF;stroke-width:0.5;opacity:1.0;" x1="793.197" x2="793.197" y1="1919" y2="1933"/>
  <text style="stroke:none;fill:black;font-family:sans-serif;font-size:13;font-weight:bold;" transform="matrix(1 0 0 1 776 1953)">Margins</text>
  <text style="stroke:none;fill:black;font-family:sans-serif;font-size:13;" transform="matrix(1 0 0 1 776 1971)">Leading and trailing margins on the left and right side of each symbol</text>
  <text style="stroke:none;fill:black;font-family:sans-serif;font-size:13;" transform="matrix(1 0 0 1 776 1989)">can be adjusted by modifying the x-location of the margin guidelines.</text>
  <text style="stroke:none;fill:black;font-family:sans-serif;font-size:13;" transform="matrix(1 0 0 1 776 2007)">Modifications are automatically applied proportionally to all</text>
  <text style="stroke:none;fill:black;font-family:sans-serif;font-size:13;" transform="matrix(1 0 0 1 776 2025)">scales and weights.</text>
  <g transform="matrix(1 0 0 1 1289 1933)">
   <path d="M2.8418 1.86523L4.54102 3.57422Q5.18555 4.22852 5.90332 4.17969Q6.62109 4.13086 7.31445 3.35938L18.0078-8.42773L17.041-9.4043L6.42578 2.27539Q6.16211 2.57812 5.89355 2.61719Q5.625 2.65625 5.27344 2.30469L4.10156 1.14258Q3.75 0.791016 3.79395 0.522461Q3.83789 0.253906 4.14062-0.0195312L15.6152-10.8203L14.6387-11.7871L3.04688-0.898438Q2.30469-0.214844 2.25098 0.498047Q2.19727 1.21094 2.8418 1.86523ZM9.25781-16.3281Q8.94531-16.0254 8.90625-15.6348Q8.86719-15.2441 9.04297-14.9512Q9.21875-14.6777 9.55566-14.541Q9.89258-14.4043 10.3809-14.5215Q11.4746-14.7754 12.5977-14.7314Q13.7207-14.6875 14.7949-13.9844L14.209-12.5293Q13.9551-11.9043 14.0674-11.4404Q14.1797-10.9766 14.5801-10.5664L16.875-8.25195Q17.2363-7.88086 17.5781-7.82227Q17.9199-7.76367 18.3398-7.8418L19.4043-8.03711L20.0684-7.36328L20.0293-6.80664Q20-6.43555 20.1221-6.12305Q20.2441-5.81055 20.6055-5.44922L21.3672-4.70703Q21.7285-4.3457 22.1533-4.33105Q22.5781-4.31641 22.9297-4.66797L25.8398-7.58789Q26.1914-7.93945 26.1816-8.35449Q26.1719-8.76953 25.8105-9.13086L25.0391-9.89258Q24.6875-10.2539 24.3799-10.3857Q24.0723-10.5176 23.7109-10.4883L23.1348-10.4395L22.4902-11.0742L22.7344-12.1973Q22.832-12.6172 22.6953-12.9834Q22.5586-13.3496 22.1191-13.7891L19.9219-15.9766Q18.6719-17.2168 17.2607-17.8369Q15.8496-18.457 14.4189-18.4814Q12.9883-18.5059 11.665-17.959Q10.3418-17.4121 9.25781-16.3281ZM10.752-15.957Q11.6602-16.6211 12.7002-16.9043Q13.7402-17.1875 14.8047-17.085Q15.8691-16.9824 16.8701-16.5137Q17.8711-16.0449 18.7012-15.2051L21.1328-12.793Q21.3086-12.6172 21.3525-12.4512Q21.3965-12.2852 21.3379-12.0312L21.0156-10.5469L22.5195-9.0625L23.5059-9.12109Q23.6914-9.13086 23.7891-9.09668Q23.8867-9.0625 24.0332-8.91602L24.6094-8.33984L22.168-5.89844L21.5918-6.47461Q21.4453-6.62109 21.4062-6.71875Q21.3672-6.81641 21.377-7.01172L21.4453-7.98828L19.9512-9.47266L18.4277-9.21875Q18.1836-9.16992 18.042-9.2041Q17.9004-9.23828 17.7148-9.41406L15.7129-11.416Q15.5176-11.5918 15.4932-11.7529Q15.4688-11.9141 15.5859-12.1875L16.4648-14.2773Q15.293-15.3711 13.8281-15.791Q12.3633-16.2109 10.8398-15.7617Q10.7227-15.7324 10.6885-15.8057Q10.6543-15.8789 10.752-15.957Z"/>
  </g>
  <text style="stroke:none;fill:black;font-family:sans-serif;font-size:13;font-weight:bold;" transform="matrix(1 0 0 1 1289 1953)">Exporting</text>
  <text style="stroke:none;fill:black;font-family:sans-serif;font-size:13;" transform="matrix(1 0 0 1 1289 1971)">Symbols should be outlined when exporting to ensure the</text>
  <text style="stroke:none;fill:black;font-family:sans-serif;font-size:13;" transform="matrix(1 0 0 1 1289 1989)">design is preserved when submitting to Xcode.</text>
  <text id="template-version" style="stroke:none;fill:black;font-family:sans-serif;font-size:13;text-anchor:end;" transform="matrix(1 0 0 1 3036 1933)">Template v.3.0</text>
  <text style="stroke:none;fill:black;font-family:sans-serif;font-size:13;text-anchor:end;" transform="matrix(1 0 0 1 3036 1951)">Requires Xcode 13 or greater</text>
  <text id="descriptive-name" style="stroke:none;fill:black;font-family:sans-serif;font-size:13;text-anchor:end;" transform="matrix(1 0 0 1 3036 1969)">Generated from arrow.left.arrow.right</text>
  <text style="stroke:none;fill:black;font-family:sans-serif;font-size:13;text-anchor:end;" transform="matrix(1 0 0 1 3036 1987)">Typeset at 100 points</text>
  <text style="stroke:none;fill:black;font-family:sans-serif;font-size:13;" transform="matrix(1 0 0 1 263 726)">Small</text>
  <text style="stroke:none;fill:black;font-family:sans-serif;font-size:13;" transform="matrix(1 0 0 1 263 1156)">Medium</text>
  <text style="stroke:none;fill:black;font-family:sans-serif;font-size:13;" transform="matrix(1 0 0 1 263 1586)">Large</text>
 </g>
 <g id="Guides">
  <g id="H-reference" style="fill:#27AAE1;stroke:none;" transform="matrix(1 0 0 1 339 696)">
   <path d="M0.993347 0L3.6377 0L29.3282-67.1326L30.0301-67.1326L30.0301-70.459L28.1227-70.459ZM11.6882-24.4797L46.9818-24.4797L46.2311-26.7288L12.4382-26.7288ZM55.1193 0L57.7637 0L30.6381-70.459L29.4327-70.459L29.4327-67.1326Z"/>
  </g>
  <line id="Baseline-S" style="fill:none;stroke:#27AAE1;opacity:1;stroke-width:0.5;" x1="263" x2="3036" y1="696" y2="696"/>
  <line id="Capline-S" style="fill:none;stroke:#27AAE1;opacity:1;stroke-width:0.5;" x1="263" x2="3036" y1="625.541" y2="625.541"/>
  <g id="H-reference" style="fill:#27AAE1;stroke:none;" transform="matrix(1 0 0 1 339 1126)">
   <path d="M0.993347 0L3.6377 0L29.3282-67.1326L30.0301-67.1326L30.0301-70.459L28.1227-70.459ZM11.6882-24.4797L46.9818-24.4797L46.2311-26.7288L12.4382-26.7288ZM55.1193 0L57.7637 0L30.6381-70.459L29.4327-70.459L29.4327-67.1326Z"/>
  </g>
  <line id="Baseline-M" style="fill:none;stroke:#27AAE1;opacity:1;stroke-width:0.5;" x1="263" x2="3036" y1="1126" y2="1126"/>
  <line id="Capline-M" style="fill:none;stroke:#27AAE1;opacity:1;stroke-width:0.5;" x1="263" x2="3036" y1="1055.54" y2="1055.54"/>
  <g id="H-reference" style="fill:#27AAE1;stroke:none;" transform="matrix(1 0 0 1 339 1556)">
   <path d="M0.993347 0L3.6377 0L29.3282-67.1326L30.0301-67.1326L30.0301-70.459L28.1227-70.459ZM11.6882-24.4797L46.9818-24.4797L46.2311-26.7288L12.4382-26.7288ZM55.1193 0L57.7637 0L30.6381-70.459L29.4327-70.459L29.4327-67.1326Z"/>
  </g>
  <line id="Baseline-L" style="fill:none;stroke:#27AAE1;opacity:1;stroke-width:0.5;" x1="263" x2="3036" y1="1556" y2="1556"/>
  <line id="Capline-L" style="fill:none;stroke:#27AAE1;opacity:1;stroke-width:0.5;" x1="263" x2="3036" y1="1485.54" y2="1485.54"/>
  <line id="left-margin-Ultralight-S" style="fill:none;stroke:#00AEEF;stroke-width:0.5;opacity:1.0;" x1="515.469" x2="515.469" y1="600.785" y2="720.121"/>
  <line id="right-margin-Ultralight-S" style="fill:none;stroke:#00AEEF;stroke-width:0.5;opacity:1.0;" x1="603.954" x2="603.954" y1="600.785" y2="720.121"/>
  <line id="left-margin-Thin-S" style="fill:none;stroke:#00AEEF;stroke-width:0.5;opacity:1.0;" x1="811.508" x2="811.508" y1="600.785" y2="720.121"/>
  <line id="right-margin-Thin-S" style="fill:none;stroke:#00AEEF;stroke-width:0.5;opacity:1.0;" x1="901.336" x2="901.336" y1="600.785" y2="720.121"/>
  <line id="left-margin-Light-S" style="fill:none;stroke:#00AEEF;stroke-width:0.5;opacity:1.0;" x1="1106.91" x2="1106.91" y1="600.785" y2="720.121"/>
  <line id="right-margin-Light-S" style="fill:none;stroke:#00AEEF;stroke-width:0.5;opacity:1.0;" x1="1199.36" x2="1199.36" y1="600.785" y2="720.121"/>
  <line id="left-margin-Regular-S" style="fill:none;stroke:#00AEEF;stroke-width:0.5;opacity:1.0;" x1="1402.63" x2="1402.63" y1="600.785" y2="720.121"/>
  <line id="right-margin-Regular-S" style="fill:none;stroke:#00AEEF;stroke-width:0.5;opacity:1.0;" x1="1497.06" x2="1497.06" y1="600.785" y2="720.121"/>
  <line id="left-margin-Medium-S" style="fill:none;stroke:#00AEEF;stroke-width:0.5;opacity:1.0;" x1="1698.96" x2="1698.96" y1="600.785" y2="720.121"/>
  <line id="right-margin-Medium-S" style="fill:none;stroke:#00AEEF;stroke-width:0.5;opacity:1.0;" x1="1794.15" x2="1794.15" y1="600.785" y2="720.121"/>
  <line id="left-margin-Semibold-S" style="fill:none;stroke:#00AEEF;stroke-width:0.5;opacity:1.0;" x1="1995.37" x2="1995.37" y1="600.785" y2="720.121"/>
  <line id="right-margin-Semibold-S" style="fill:none;stroke:#00AEEF;stroke-width:0.5;opacity:1.0;" x1="2091.16" x2="2091.16" y1="600.785" y2="720.121"/>
  <line id="left-margin-Bold-S" style="fill:none;stroke:#00AEEF;stroke-width:0.5;opacity:1.0;" x1="2291.7" x2="2291.7" y1="600.785" y2="720.121"/>
  <line id="right-margin-Bold-S" style="fill:none;stroke:#00AEEF;stroke-width:0.5;opacity:1.0;" x1="2388.26" x2="2388.26" y1="600.785" y2="720.121"/>
  <line id="left-margin-Heavy-S" style="fill:none;stroke:#00AEEF;stroke-width:0.5;opacity:1.0;" x1="2587.85" x2="2587.85" y1="600.785" y2="720.121"/>
  <line id="right-margin-Heavy-S" style="fill:none;stroke:#00AEEF;stroke-width:0.5;opacity:1.0;" x1="2685.53" x2="2685.53" y1="600.785" y2="720.121"/>
  <line id="left-margin-Black-S" style="fill:none;stroke:#00AEEF;stroke-width:0.5;opacity:1.0;" x1="2884.06" x2="2884.06" y1="600.785" y2="720.121"/>
  <line id="right-margin-Black-S" style="fill:none;stroke:#00AEEF;stroke-width:0.5;opacity:1.0;" x1="2982.74" x2="2982.74" y1="600.785" y2="720.121"/>
  <line id="left-margin-Ultralight-M" style="fill:none;stroke:#00AEEF;stroke-width:0.5;opacity:1.0;" x1="503.524" x2="503.524" y1="1030.79" y2="1150.12"/>
  <line id="right-margin-Ultralight-M" style="fill:none;stroke:#00AEEF;stroke-width:0.5;opacity:1.0;" x1="615.898" x2="615.898" y1="1030.79" y2="1150.12"/>
  <line id="left-margin-Thin-M" style="fill:none;stroke:#00AEEF;stroke-width:0.5;opacity:1.0;" x1="799.471" x2="799.471" y1="1030.79" y2="1150.12"/>
  <line id="right-margin-Thin-M" style="fill:none;stroke:#00AEEF;stroke-width:0.5;opacity:1.0;" x1="913.374" x2="913.374" y1="1030.79" y2="1150.12"/>
  <line id="left-margin-Light-M" style="fill:none;stroke:#00AEEF;stroke-width:0.5;opacity:1.0;" x1="1094.69" x2="1094.69" y1="1030.79" y2="1150.12"/>
  <line id="right-margin-Light-M" style="fill:none;stroke:#00AEEF;stroke-width:0.5;opacity:1.0;" x1="1211.58" x2="1211.58" y1="1030.79" y2="1150.12"/>
  <line id="left-margin-Regular-M" style="fill:none;stroke:#00AEEF;stroke-width:0.5;opacity:1.0;" x1="1390.27" x2="1390.27" y1="1030.79" y2="1150.12"/>
  <line id="right-margin-Regular-M" style="fill:none;stroke:#00AEEF;stroke-width:0.5;opacity:1.0;" x1="1509.41" x2="1509.41" y1="1030.79" y2="1150.12"/>
  <line id="left-margin-Medium-M" style="fill:none;stroke:#00AEEF;stroke-width:0.5;opacity:1.0;" x1="1686.41" x2="1686.41" y1="1030.79" y2="1150.12"/>
  <line id="right-margin-Medium-M" style="fill:none;stroke:#00AEEF;stroke-width:0.5;opacity:1.0;" x1="1806.7" x2="1806.7" y1="1030.79" y2="1150.12"/>
  <line id="left-margin-Semibold-M" style="fill:none;stroke:#00AEEF;stroke-width:0.5;opacity:1.0;" x1="1982.69" x2="1982.69" y1="1030.79" y2="1150.12"/>
  <line id="right-margin-Semibold-M" style="fill:none;stroke:#00AEEF;stroke-width:0.5;opacity:1.0;" x1="2103.85" x2="2103.85" y1="1030.79" y2="1150.12"/>
  <line id="left-margin-Bold-M" style="fill:none;stroke:#00AEEF;stroke-width:0.5;opacity:1.0;" x1="2278.82" x2="2278.82" y1="1030.79" y2="1150.12"/>
  <line id="right-margin-Bold-M" style="fill:none;stroke:#00AEEF;stroke-width:0.5;opacity:1.0;" x1="2401.14" x2="2401.14" y1="1030.79" y2="1150.12"/>
  <line id="left-margin-Heavy-M" style="fill:none;stroke:#00AEEF;stroke-width:0.5;opacity:1.0;" x1="2574.69" x2="2574.69" y1="1030.79" y2="1150.12"/>
  <line id="right-margin-Heavy-M" style="fill:none;stroke:#00AEEF;stroke-width:0.5;opacity:1.0;" x1="2698.68" x2="2698.68" y1="1030.79" y2="1150.12"/>
  <line id="left-margin-Black-M" style="fill:none;stroke:#00AEEF;stroke-width:0.5;opacity:1.0;" x1="2870.66" x2="2870.66" y1="1030.79" y2="1150.12"/>
  <line id="right-margin-Black-M" style="fill:none;stroke:#00AEEF;stroke-width:0.5;opacity:1.0;" x1="2996.14" x2="2996.14" y1="1030.79" y2="1150.12"/>
  <line id="left-margin-Ultralight-L" style="fill:none;stroke:#00AEEF;stroke-width:0.5;opacity:1.0;" x1="487.53" x2="487.53" y1="1460.79" y2="1580.12"/>
  <line id="right-margin-Ultralight-L" style="fill:none;stroke:#00AEEF;stroke-width:0.5;opacity:1.0;" x1="631.893" x2="631.893" y1="1460.79" y2="1580.12"/>
  <line id="left-margin-Thin-L" style="fill:none;stroke:#00AEEF;stroke-width:0.5;opacity:1.0;" x1="783.395" x2="783.395" y1="1460.79" y2="1580.12"/>
  <line id="right-margin-Thin-L" style="fill:none;stroke:#00AEEF;stroke-width:0.5;opacity:1.0;" x1="929.45" x2="929.45" y1="1460.79" y2="1580.12"/>
  <line id="left-margin-Light-L" style="fill:none;stroke:#00AEEF;stroke-width:0.5;opacity:1.0;" x1="1078.45" x2="1078.45" y1="1460.79" y2="1580.12"/>
  <line id="right-margin-Light-L" style="fill:none;stroke:#00AEEF;stroke-width:0.5;opacity:1.0;" x1="1227.81" x2="1227.81" y1="1460.79" y2="1580.12"/>
  <line id="left-margin-Regular-L" style="fill:none;stroke:#00AEEF;stroke-width:0.5;opacity:1.0;" x1="1373.92" x2="1373.92" y1="1460.79" y2="1580.12"/>
  <line id="right-margin-Regular-L" style="fill:none;stroke:#00AEEF;stroke-width:0.5;opacity:1.0;" x1="1525.77" x2="1525.77" y1="1460.79" y2="1580.12"/>
  <line id="left-margin-Medium-L" style="fill:none;stroke:#00AEEF;stroke-width:0.5;opacity:1.0;" x1="1669.83" x2="1669.83" y1="1460.79" y2="1580.12"/>
  <line id="right-margin-Medium-L" style="fill:none;stroke:#00AEEF;stroke-width:0.5;opacity:1.0;" x1="1823.28" x2="1823.28" y1="1460.79" y2="1580.12"/>
  <line id="left-margin-Semibold-L" style="fill:none;stroke:#00AEEF;stroke-width:0.5;opacity:1.0;" x1="1965.93" x2="1965.93" y1="1460.79" y2="1580.12"/>
  <line id="right-margin-Semibold-L" style="fill:none;stroke:#00AEEF;stroke-width:0.5;opacity:1.0;" x1="2120.61" x2="2120.61" y1="1460.79" y2="1580.12"/>
  <line id="left-margin-Bold-L" style="fill:none;stroke:#00AEEF;stroke-width:0.5;opacity:1.0;" x1="2261.83" x2="2261.83" y1="1460.79" y2="1580.12"/>
  <line id="right-margin-Bold-L" style="fill:none;stroke:#00AEEF;stroke-width:0.5;opacity:1.0;" x1="2418.13" x2="2418.13" y1="1460.79" y2="1580.12"/>
  <line id="left-margin-Heavy-L" style="fill:none;stroke:#00AEEF;stroke-width:0.5;opacity:1.0;" x1="2557.37" x2="2557.37" y1="1460.79" y2="1580.12"/>
  <line id="right-margin-Heavy-L" style="fill:none;stroke:#00AEEF;stroke-width:0.5;opacity:1.0;" x1="2716.01" x2="2716.01" y1="1460.79" y2="1580.12"/>
  <line id="left-margin-Black-L" style="fill:none;stroke:#00AEEF;stroke-width:0.5;opacity:1.0;" x1="2853.03" x2="2853.03" y1="1460.79" y2="1580.12"/>
  <line id="right-margin-Black-L" style="fill:none;stroke:#00AEEF;stroke-width:0.5;opacity:1.0;" x1="3013.77" x2="3013.77" y1="1460.79" y2="1580.12"/>
 </g>
 <g id="Symbols">
  <g id="Black-L" transform="matrix(1 0 0 1 2853.03 1556)">
   <path d="M19.3848-79.7363Q16.0645-76.5625 16.0645-72.168Q16.0645-67.7734 19.3848-64.5996L51.9531-33.0078Q53.3203-31.5918 55.3223-30.7617Q57.3242-29.9316 59.2773-29.9316Q63.7695-29.9316 66.626-32.7881Q69.4824-35.6445 69.4824-40.0879Q69.4824-44.4824 66.5527-47.168L53.5645-59.5703L50.4883-62.1094L60.4004-61.9141L134.424-61.9141Q138.818-61.9141 141.748-64.8438Q144.678-67.7734 144.678-72.168Q144.678-76.5625 141.748-79.4922Q138.818-82.4219 134.424-82.4219L60.4004-82.4219L50.4883-82.2266L53.5645-84.8145L66.5527-97.168Q69.4824-99.9023 69.4824-104.248Q69.4824-108.691 66.626-111.572Q63.7695-114.453 59.2773-114.453Q57.3242-114.453 55.3223-113.599Q53.3203-112.744 51.9531-111.377ZM141.357 9.375Q144.678 6.20117 144.653 1.80664Q144.629-2.58789 141.357-5.76172L108.789-37.4023Q107.373-38.7695 105.371-39.624Q103.369-40.4785 101.416-40.4785Q96.9727-40.4785 94.1162-37.5977Q91.2598-34.7168 91.2598-30.2734Q91.2598-25.9277 94.1406-23.1934L107.129-10.791L110.254-8.25195L100.342-8.44727L26.3184-8.44727Q21.9238-8.44727 18.9941-5.51758Q16.0645-2.58789 16.0645 1.80664Q16.0645 6.20117 18.9941 9.13086Q21.9238 12.0605 26.3184 12.0605L100.342 12.0605L110.254 11.8652L107.129 14.4043L94.1406 26.8066Q91.2598 29.541 91.2598 33.8867Q91.2598 38.3301 94.1162 41.2109Q96.9727 44.0918 101.416 44.0918Q103.369 44.0918 105.371 43.2373Q107.373 42.3828 108.789 40.9668Z"/>
  </g>
  <g id="Heavy-L" transform="matrix(1 0 0 1 2557.37 1556)">
   <path d="M18.9812-78.653Q16.053-75.8713 16.0645-72.0242Q16.0759-68.177 18.9812-65.406L51.5038-33.7456Q52.7214-32.4905 54.4754-31.7585Q56.2294-31.0265 57.9521-31.0265Q61.8797-31.0265 64.3673-33.5197Q66.8549-36.013 66.8549-39.9033Q66.8549-43.7218 64.2822-46.1075L51.0063-58.8676L45.8092-63.3423L56.7474-63.0783L133.617-63.0783Q137.459-63.0783 140.02-65.6277Q142.58-68.177 142.58-72.0299Q142.58-75.8827 140.02-78.4378Q137.459-80.9929 133.617-80.9929L56.7474-80.9929L45.8092-80.7281L51.0063-85.2409L64.2822-97.9515Q66.8549-100.375 66.8549-104.167Q66.8549-108.046 64.3673-110.564Q61.8797-113.081 57.9521-113.081Q56.2294-113.081 54.4754-112.325Q52.7214-111.568 51.5038-110.352ZM139.675 8.28018Q142.592 5.4863 142.567 1.64528Q142.543-2.19574 139.675-4.97818L107.153-36.676Q105.898-37.8937 104.138-38.6444Q102.378-39.3951 100.667-39.3951Q96.7766-39.3951 94.2833-36.8774Q91.79-34.3597 91.79-30.481Q91.79-26.6884 94.3253-24.2653L107.613-11.5173L112.836-7.04193L101.909-7.30667L25.0275-7.30667Q21.1861-7.30667 18.6253-4.75121Q16.0645-2.19574 16.0645 1.6571Q16.0645 5.50995 18.6253 8.05931Q21.1861 10.6087 25.0275 10.6087L101.909 10.6087L112.836 10.3439L107.613 14.8193L94.3253 27.5673Q91.79 29.9904 91.79 33.783Q91.79 37.6732 94.2833 40.1852Q96.7766 42.6971 100.667 42.6971Q102.378 42.6971 104.138 41.9464Q105.898 41.1957 107.153 39.9414Z"/>
  </g>
  <g id="Bold-L" transform="matrix(1 0 0 1 2261.83 1556)">
   <path d="M18.5303-77.4414Q16.04-75.0977 16.0645-71.8628Q16.0889-68.6279 18.5303-66.3086L51.001-34.5703Q52.0508-33.4961 53.5278-32.8735Q55.0049-32.251 56.4697-32.251Q59.7656-32.251 61.8408-34.3384Q63.916-36.4258 63.916-39.6973Q63.916-42.8711 61.7432-44.9219L48.1445-58.0811L40.5762-64.7217L52.6611-64.3799L132.715-64.3799Q135.938-64.3799 138.086-66.5039Q140.234-68.6279 140.234-71.875Q140.234-75.1221 138.086-77.2583Q135.938-79.3945 132.715-79.3945L52.6611-79.3945L40.5762-79.0527L48.1445-85.7178L61.7432-98.8281Q63.916-100.903 63.916-104.077Q63.916-107.324 61.8408-109.436Q59.7656-111.548 56.4697-111.548Q55.0049-111.548 53.5278-110.901Q52.0508-110.254 51.001-109.204ZM137.793 7.05566Q140.259 4.6875 140.234 1.46484Q140.21-1.75781 137.793-4.10156L105.322-35.8643Q104.248-36.9141 102.759-37.5488Q101.27-38.1836 99.8291-38.1836Q96.5576-38.1836 94.4702-36.0718Q92.3828-33.96 92.3828-30.7129Q92.3828-27.5391 94.5312-25.4639L108.154-12.3291L115.723-5.68848L103.662-6.03027L23.584-6.03027Q20.3613-6.03027 18.2129-3.89404Q16.0645-1.75781 16.0645 1.48926Q16.0645 4.73633 18.2129 6.86035Q20.3613 8.98438 23.584 8.98438L103.662 8.98438L115.723 8.64258L108.154 15.2832L94.5312 28.418Q92.3828 30.4932 92.3828 33.667Q92.3828 36.9385 94.4702 39.0381Q96.5576 41.1377 99.8291 41.1377Q101.27 41.1377 102.759 40.5029Q104.248 39.8682 105.322 38.7939Z"/>
  </g>
  <g id="Semibold-L" transform="matrix(1 0 0 1 1965.93 1556)">
   <path d="M18.219-76.606Q16.0309-74.5644 16.0645-71.7518Q16.098-68.9392 18.219-66.9304L50.6546-35.1395Q51.5884-34.1896 52.8744-33.6426Q54.1603-33.0956 55.4474-33.0956Q58.3084-33.0956 60.099-34.903Q61.8896-36.7104 61.8896-39.5554Q61.8896-42.2844 59.9922-44.104L46.1716-57.5386L36.9682-65.6723L49.8436-65.2771L132.093-65.2771Q134.888-65.2771 136.753-67.1082Q138.617-68.9392 138.617-71.7682Q138.617-74.5979 136.753-76.4454Q134.888-78.2928 132.093-78.2928L49.8436-78.2928L36.9682-77.8976L46.1716-86.0466L59.9922-99.4324Q61.8896-101.268 61.8896-104.015Q61.8896-106.827 60.099-108.659Q58.3084-110.49 55.4474-110.49Q54.1603-110.49 52.8744-109.919Q51.5884-109.348 50.6546-108.413ZM136.495 6.21109Q138.651 4.13666 138.626 1.34048Q138.602-1.45569 136.495-3.49731L104.06-35.3043Q103.111-36.2389 101.808-36.7935Q100.505-37.3482 99.2516-37.3482Q96.4066-37.3482 94.5992-35.5164Q92.7917-33.6845 92.7917-30.8731Q92.7917-28.1258 94.6732-26.2901L108.527-12.8891L117.713-4.7554L104.871-5.1506L22.5883-5.1506Q19.7929-5.1506 17.9287-3.30315Q16.0645-1.45569 16.0645 1.37405Q16.0645 4.20303 17.9287 6.03371Q19.7929 7.86438 22.5883 7.86438L104.871 7.86438L117.713 7.46918L108.527 15.6029L94.6732 29.0047Q92.7917 30.8395 92.7917 33.5869Q92.7917 36.4319 94.5992 38.2473Q96.4066 40.0627 99.2516 40.0627Q100.505 40.0627 101.808 39.5077Q103.111 38.9526 104.06 38.0028Z"/>
  </g>
  <g id="Medium-L" transform="matrix(1 0 0 1 1669.83 1556)">
   <path d="M17.9832-75.9727Q16.0248-74.16 16.0645-71.6675Q16.1041-69.175 17.9832-67.4026L50.3914-35.5705Q51.2383-34.7145 52.3792-34.2251Q53.5202-33.7357 54.673-33.7357Q57.2029-33.7357 58.778-35.3306Q60.3531-36.9255 60.3531-39.447Q60.3531-41.8396 58.6647-43.4845L44.6754-57.1281L34.2323-66.3933L47.7081-65.9584L131.621-65.9584Q134.093-65.9584 135.742-67.5667Q137.391-69.175 137.391-71.6873Q137.391-74.2004 135.742-75.8286Q134.093-77.4567 131.621-77.4567L47.7081-77.4567L34.2323-77.0218L44.6754-86.2961L58.6647-99.8909Q60.3531-101.544 60.3531-103.968Q60.3531-106.449 58.778-108.069Q57.2029-109.689 54.673-109.689Q53.5202-109.689 52.3792-109.174Q51.2383-108.66 50.3914-107.813ZM135.512 5.57098Q137.431 3.71857 137.406 1.24588Q137.382-1.22681 135.512-3.03879L103.104-34.8801Q102.248-35.7262 101.087-36.2206Q99.926-36.7149 98.8136-36.7149Q96.2921-36.7149 94.6968-35.0952Q93.1015-33.4755 93.1015-30.9944Q93.1015-28.5706 94.7815-26.9173L108.81-13.3133L119.223-4.04816L105.787-4.48303L21.8338-4.48303Q19.3611-4.48303 17.7128-2.85492Q16.0645-1.22681 16.0645 1.28632Q16.0645 3.79868 17.7128 5.40695Q19.3611 7.01523 21.8338 7.01523L105.787 7.01523L119.223 6.58035L108.81 15.8455L94.7815 29.4495Q93.1015 31.1028 93.1015 33.5266Q93.1015 36.0481 94.6968 37.6476Q96.2921 39.2471 98.8136 39.2471Q99.926 39.2471 101.087 38.7531Q102.248 38.2591 103.104 37.4031Z"/>
  </g>
  <g id="Regular-L" transform="matrix(1 0 0 1 1373.92 1556)">
   <path d="M17.6758-75.1465Q16.0156-73.6328 16.0645-71.5576Q16.1133-69.4824 17.6758-68.0176L50.0488-36.1328Q50.7812-35.4004 51.7334-34.9854Q52.6855-34.5703 53.6621-34.5703Q55.7617-34.5703 57.0557-35.8887Q58.3496-37.207 58.3496-39.3066Q58.3496-41.2598 56.9336-42.6758L42.7246-56.5918L30.6641-67.334L44.9219-66.8457L131.006-66.8457Q133.057-66.8457 134.424-68.1641Q135.791-69.4824 135.791-71.582Q135.791-73.6816 134.424-75.0244Q133.057-76.3672 131.006-76.3672L44.9219-76.3672L30.6641-75.8789L42.7246-86.6211L56.9336-100.488Q58.3496-101.904 58.3496-103.906Q58.3496-105.957 57.0557-107.3Q55.7617-108.643 53.6621-108.643Q52.6855-108.643 51.7334-108.203Q50.7812-107.764 50.0488-107.031ZM134.229 4.73633Q135.84 3.17383 135.815 1.12305Q135.791-0.927734 134.229-2.44141L101.855-34.3262Q101.123-35.0586 100.146-35.4736Q99.1699-35.8887 98.2422-35.8887Q96.1426-35.8887 94.8242-34.5459Q93.5059-33.2031 93.5059-31.1523Q93.5059-29.1504 94.9219-27.7344L109.18-13.8672L121.191-3.125L106.982-3.61328L20.8496-3.61328Q18.7988-3.61328 17.4316-2.27051Q16.0645-0.927734 16.0645 1.17188Q16.0645 3.27148 17.4316 4.58984Q18.7988 5.9082 20.8496 5.9082L106.982 5.9082L121.191 5.41992L109.18 16.1621L94.9219 30.0293Q93.5059 31.4453 93.5059 33.4473Q93.5059 35.5469 94.8242 36.8652Q96.1426 38.1836 98.2422 38.1836Q99.1699 38.1836 100.146 37.7686Q101.123 37.3535 101.855 36.6211Z"/>
  </g>
  <g id="Light-L" transform="matrix(1 0 0 1 1078.45 1556)">
   <path d="M17.2668-73.9204Q16.0156-72.7699 16.0645-71.2093Q16.1133-69.6487 17.2668-68.5471L49.5338-36.496Q50.1305-35.9154 50.8404-35.5835Q51.5503-35.2516 52.3605-35.2516Q53.9299-35.2516 54.9137-36.2522Q55.8975-37.2528 55.8975-38.8222Q55.8975-40.3366 54.7386-41.4948L39.6217-56.4407L27.137-68.0305L40.9714-67.6628L129.689-67.6628Q131.195-67.6628 132.237-68.6558Q133.279-69.6487 133.279-71.2341Q133.279-72.8188 132.237-73.8285Q131.195-74.8383 129.689-74.8383L40.9714-74.8383L27.137-74.4713L39.6217-86.0611L54.7386-100.973Q55.8975-102.132 55.8975-103.679Q55.8975-105.215 54.9137-106.233Q53.9299-107.25 52.3605-107.25Q51.5503-107.25 50.8404-106.909Q50.1305-106.568 49.5338-105.972ZM132.124 3.46451Q133.342 2.28043 133.31 0.737Q133.279-0.806427 132.124-1.94168L99.8573-33.9935Q99.2615-34.5894 98.5344-34.9136Q97.8073-35.2379 97.0314-35.2379Q95.4613-35.2379 94.4607-34.2205Q93.4601-33.2031 93.4601-31.6673Q93.4601-30.1193 94.619-28.9604L109.77-14.0488L122.221-2.45895L108.421-2.82593L19.6686-2.82593Q18.1633-2.82593 17.1215-1.81618Q16.0797-0.806427 16.0797 0.778198Q16.0797 2.36359 17.1215 3.35617Q18.1633 4.34875 19.6686 4.34875L108.421 4.34875L122.221 3.98178L109.77 15.5716L94.619 30.4832Q93.4601 31.6422 93.4601 33.1902Q93.4601 34.7595 94.4607 35.7601Q95.4613 36.7607 97.0314 36.7607Q97.8073 36.7607 98.5344 36.4288Q99.2615 36.097 99.8573 35.5164Z"/>
  </g>
  <g id="Thin-L" transform="matrix(1 0 0 1 783.395 1556)">
   <path d="M16.7267-72.2992Q16.0156-71.6293 16.0645-70.7493Q16.1133-69.8692 16.7267-69.2482L48.8533-36.9766Q49.2699-36.5959 49.6593-36.3743Q50.0488-36.1526 50.6386-36.1526Q51.5083-36.1526 52.0813-36.7325Q52.6543-37.3123 52.6543-38.1821Q52.6543-39.1151 51.8364-39.9338L35.5179-56.2401L22.4731-68.9514L35.7468-68.7439L127.947-68.7439Q128.732-68.7439 129.344-69.3066Q129.955-69.8692 129.955-70.7733Q129.955-71.6782 129.344-72.2473Q128.732-72.8165 127.947-72.8165L35.7468-72.8165L22.4731-72.6097L35.5179-85.3203L51.8364-101.614Q52.6543-102.431 52.6543-103.379Q52.6543-104.234 52.0813-104.821Q51.5083-105.408 50.6386-105.408Q50.0488-105.408 49.6593-105.198Q49.2699-104.987 48.8533-104.571ZM129.342 1.78299Q130.039 1.0994 129.997 0.226593Q129.955-0.64621 129.342-1.28098L97.2153-33.5526Q96.7987-33.9691 96.4024-34.1732Q96.006-34.3773 95.43-34.3773Q94.5602-34.3773 93.9804-33.7902Q93.4006-33.2031 93.4006-32.3479Q93.4006-31.4003 94.2184-30.5817L110.551-14.2891L123.582-1.57852L110.322-1.78528L18.1076-1.78528Q17.3225-1.78528 16.711-1.21574Q16.0995-0.64621 16.0995 0.257874Q16.0995 1.16196 16.711 1.72462Q17.3225 2.28729 18.1076 2.28729L110.322 2.28729L123.582 2.08054L110.551 14.7911L94.2184 31.0837Q93.4006 31.9023 93.4006 32.8499Q93.4006 33.7189 93.9804 34.2991Q94.5602 34.8793 95.43 34.8793Q96.006 34.8793 96.4024 34.6577Q96.7987 34.436 97.2153 34.0546Z"/>
  </g>
  <g id="Ultralight-L" transform="matrix(1 0 0 1 487.53 1556)">
   <path d="M16.4497-71.4684Q16.0156-71.0442 16.0645-70.5132Q16.1133-69.9821 16.4497-69.6068L48.5046-37.2223Q48.8289-36.9446 49.0543-36.779Q49.2798-36.6135 49.7566-36.6135Q50.267-36.6135 50.6302-36.9785Q50.9933-37.3436 50.9933-37.8532Q50.9933-38.4895 50.3494-39.1335L33.4152-56.1378L20.0836-69.4229L33.0696-69.2978L127.055-69.2978Q127.471-69.2978 127.862-69.64Q128.253-69.9821 128.253-70.5376Q128.253-71.093 127.862-71.4371Q127.471-71.7812 127.055-71.7812L33.0696-71.7812L20.0836-71.656L33.4152-84.9411L50.3494-101.942Q50.9933-102.586 50.9933-103.225Q50.9933-103.732 50.6302-104.099Q50.267-104.465 49.7566-104.465Q49.2798-104.465 49.0543-104.321Q48.8289-104.176 48.5046-103.853ZM127.917 0.921631Q128.347 0.494385 128.3-0.0350952Q128.253-0.564575 127.917-0.942993L95.8611-33.3275Q95.5376-33.651 95.3102-33.7936Q95.0829-33.9363 94.6091-33.9363Q94.0994-33.9363 93.7344-33.5697Q93.3693-33.2031 93.3693-32.6965Q93.3693-32.0564 94.014-31.4125L110.95-14.4119L124.279-1.12686L111.296-1.25198L17.3073-1.25198Q16.8915-1.25198 16.5009-0.908279Q16.1102-0.564575 16.1102-0.00915527Q16.1102 0.547028 16.5009 0.888824Q16.8915 1.23062 17.3073 1.23062L111.296 1.23062L124.279 1.10626L110.95 14.3913L94.014 31.3919Q93.3693 32.0358 93.3693 32.6752Q93.3693 33.1856 93.7344 33.5503Q94.0994 33.9149 94.6091 33.9149Q95.0829 33.9149 95.3102 33.7498Q95.5376 33.5846 95.8611 33.3061Z"/>
  </g>
  <g id="Black-M" transform="matrix(1 0 0 1 2870.66 1126)">
   <path d="M15.2344-70.2637Q12.4512-67.5781 12.4512-63.8672Q12.4512-60.1562 15.2344-57.4707L40.4785-33.0078Q43.0664-30.4199 46.6797-30.4199Q50.3906-30.4199 52.832-32.8369Q55.2734-35.2539 55.2734-39.0137Q55.2734-42.7246 52.7832-45.0195L42.6758-54.6387L41.9434-55.2734L48.6328-55.2246L104.395-55.2246Q108.105-55.2246 110.571-57.6904Q113.037-60.1562 113.037-63.8672Q113.037-67.5781 110.571-70.0439Q108.105-72.5098 104.395-72.5098L48.6328-72.5098L41.9434-72.4609L42.6758-73.0957L52.7832-82.7148Q55.2734-85.0098 55.2734-88.7207Q55.2734-92.4805 52.832-94.8975Q50.3906-97.3145 46.6797-97.3145Q43.0664-97.3145 40.4785-94.7266ZM110.303-0.146484Q113.037-2.83203 113.037-6.54297Q113.037-10.2539 110.303-12.8906L85.0586-37.4023Q82.4707-39.9902 78.8574-39.9902Q75.0977-39.9902 72.6807-37.5732Q70.2637-35.1562 70.2637-31.3965Q70.2637-27.6855 72.7051-25.3906L82.8613-15.7715L83.5938-15.1367L76.9043-15.1855L21.0938-15.1855Q17.4316-15.1855 14.9414-12.7197Q12.4512-10.2539 12.4512-6.54297Q12.4512-2.83203 14.9414-0.341797Q17.4316 2.14844 21.0938 2.14844L76.9043 2.14844L83.5938 2.09961L82.8613 2.68555L72.7051 12.3535Q70.2637 14.6484 70.2637 18.3594Q70.2637 22.0703 72.6807 24.5117Q75.0977 26.9531 78.8574 26.9531Q82.4707 26.9531 85.0586 24.3652Z"/>
  </g>
  <g id="Heavy-M" transform="matrix(1 0 0 1 2574.69 1126)">
   <path d="M14.9231-69.4687Q12.4512-67.0822 12.4512-63.8035Q12.4512-60.5247 14.9231-58.1505L40.1443-33.6533Q42.4553-31.3416 45.6429-31.3416Q48.9388-31.3416 51.086-33.4763Q53.2333-35.611 53.2333-38.9328Q53.2333-42.1829 51.0315-44.236L40.8318-53.9818L38.1287-56.3225L45.9015-56.1699L103.899-56.1699Q107.184-56.1699 109.356-58.3473Q111.527-60.5247 111.527-63.8092Q111.527-67.0944 109.356-69.2661Q107.184-71.4378 103.899-71.4378L45.9015-71.4378L38.1287-71.2967L40.8318-73.6259L51.0315-83.3832Q53.2333-85.4248 53.2333-88.6864Q53.2333-92.0082 51.086-94.1368Q48.9388-96.2654 45.6429-96.2654Q42.4553-96.2654 40.1443-93.9659ZM109.104-0.941467Q111.539-3.32794 111.533-6.6124Q111.527-9.89685 109.104-12.2337L83.8829-36.7683Q81.572-39.0686 78.3737-39.0686Q75.0519-39.0686 72.9229-36.9396Q70.7939-34.8106 70.7939-31.4888Q70.7939-28.2272 72.9469-26.1856L83.1955-16.4284L85.8986-14.0877L78.1258-14.2403L20.0912-14.2403Q16.8442-14.2403 14.6477-12.0686Q12.4512-9.89685 12.4512-6.6124Q12.4512-3.31573 14.6477-1.12534Q16.8442 1.06506 20.0912 1.06506L78.1258 1.06506L85.8986 0.912476L83.1955 3.21579L72.9469 12.999Q70.7939 15.052 70.7939 18.3136Q70.7939 21.5981 72.9229 23.7453Q75.0519 25.8926 78.3737 25.8926Q81.572 25.8926 83.8829 23.5931Z"/>
  </g>
  <g id="Bold-M" transform="matrix(1 0 0 1 2278.82 1126)">
   <path d="M14.5752-68.5791Q12.4512-66.5283 12.4512-63.7329Q12.4512-60.9375 14.5752-58.9111L39.7705-34.375Q41.7725-32.373 44.4824-32.373Q47.3145-32.373 49.1333-34.1919Q50.9521-36.0107 50.9521-38.8428Q50.9521-41.5771 49.0723-43.3594L38.7695-53.2471L33.8623-57.4951L42.8467-57.2266L103.345-57.2266Q106.152-57.2266 107.996-59.082Q109.839-60.9375 109.839-63.7451Q109.839-66.5527 107.996-68.396Q106.152-70.2393 103.345-70.2393L42.8467-70.2393L33.8623-69.9951L38.7695-74.2188L49.0723-84.1309Q50.9521-85.8887 50.9521-88.6475Q50.9521-91.4795 49.1333-93.2861Q47.3145-95.0928 44.4824-95.0928Q41.7725-95.0928 39.7705-93.1152ZM107.764-1.83105Q109.863-3.88184 109.851-6.68945Q109.839-9.49707 107.764-11.499L82.5684-36.0596Q80.5664-38.0371 77.832-38.0371Q75-38.0371 73.1934-36.2305Q71.3867-34.4238 71.3867-31.5918Q71.3867-28.833 73.2178-27.0752L83.5693-17.1631L88.4766-12.915L79.4922-13.1836L18.9697-13.1836Q16.1865-13.1836 14.3188-11.3403Q12.4512-9.49707 12.4512-6.68945Q12.4512-3.85742 14.3188-2.00195Q16.1865-0.146484 18.9697-0.146484L79.4922-0.146484L88.4766-0.415039L83.5693 3.80859L73.2178 13.7207Q71.3867 15.5029 71.3867 18.2617Q71.3867 21.0693 73.1934 22.8882Q75 24.707 77.832 24.707Q80.5664 24.707 82.5684 22.7295Z"/>
  </g>
  <g id="Semibold-M" transform="matrix(1 0 0 1 1982.69 1126)">
   <path d="M14.3349-67.9657Q12.4512-66.1461 12.4512-63.6841Q12.4512-61.2221 14.3349-59.4353L39.5126-34.8724Q41.3017-33.0841 43.6829-33.0841Q46.1945-33.0841 47.7867-34.6851Q49.379-36.2862 49.379-38.7802Q49.379-41.1598 47.7211-42.7551L37.3474-52.7405L30.9204-58.3038L40.7402-57.9552L102.962-57.9552Q105.441-57.9552 107.058-59.5886Q108.675-61.2221 108.675-63.7009Q108.675-66.1797 107.058-67.7963Q105.441-69.413 102.962-69.413L40.7402-69.413L30.9204-69.0979L37.3474-74.6277L47.7211-84.6466Q49.379-86.2083 49.379-88.6208Q49.379-91.1148 47.7867-92.6994Q46.1945-94.2841 43.6829-94.2841Q41.3017-94.2841 39.5126-92.5285ZM106.84-2.44446Q108.708-4.26407 108.691-6.74286Q108.675-9.22165 106.84-10.9924L81.662-35.5705Q79.8729-37.326 77.459-37.326Q74.9641-37.326 73.3799-35.7418Q71.7957-34.1576 71.7957-31.6628Q71.7957-29.2503 73.4047-27.6886L83.8272-17.6697L90.2542-12.1063L80.4344-12.455L18.1969-12.455Q15.7333-12.455 14.0923-10.8383Q12.4512-9.22165 12.4512-6.74286Q12.4512-4.2305 14.0923-2.6062Q15.7333-0.981903 18.1969-0.981903L80.4344-0.981903L90.2542-1.33057L83.8272 4.21753L73.4047 14.2181Q71.7957 15.8142 71.7957 18.2259Q71.7957 20.7047 73.3799 22.2969Q74.9641 23.8892 77.459 23.8892Q79.8729 23.8892 81.662 22.1344Z"/>
  </g>
  <g id="Medium-M" transform="matrix(1 0 0 1 1686.41 1126)">
   <path d="M14.1533-67.5011Q12.4512-65.8562 12.4512-63.6467Q12.4512-61.4372 14.1533-59.8328L39.3173-35.2501Q40.9447-33.6227 43.0763-33.6227Q45.3453-33.6227 46.7659-35.059Q48.1865-36.4952 48.1865-38.7337Q48.1865-40.8424 46.6972-42.2966L36.2694-52.3567L28.6903-58.9172L39.1434-58.5075L102.673-58.5075Q104.903-58.5075 106.347-59.9724Q107.792-61.4372 107.792-63.6673Q107.792-65.8966 106.347-67.3412Q104.903-68.7859 102.673-68.7859L39.1434-68.7859L28.6903-68.4166L36.2694-74.9374L46.6972-85.0372Q48.1865-86.451 48.1865-88.6009Q48.1865-90.8386 46.7659-92.2546Q45.3453-93.6707 43.0763-93.6707Q40.9447-93.6707 39.3173-92.0837ZM106.139-2.90909Q107.832-4.55399 107.812-6.78329Q107.792-9.0126 106.139-10.6087L80.9746-35.2005Q79.348-36.7874 77.1759-36.7874Q74.9374-36.7874 73.5214-35.3714Q72.1054-33.9554 72.1054-31.7169Q72.1054-29.5677 73.5458-28.1532L84.0225-18.0534L91.6016-11.4929L81.1485-11.9026L17.6102-11.9026Q15.3893-11.9026 13.9202-10.4576Q12.4512-9.0126 12.4512-6.78329Q12.4512-4.51355 13.9202-3.06435Q15.3893-1.61514 17.6102-1.61514L81.1485-1.61514L91.6016-2.02408L84.0225 4.52728L73.5458 14.5958Q72.1054 16.05 72.1054 18.1992Q72.1054 20.4285 73.5214 21.8491Q74.9374 23.2697 77.1759 23.2697Q79.348 23.2697 80.9746 21.6827Z"/>
  </g>
  <g id="Regular-M" transform="matrix(1 0 0 1 1390.27 1126)">
   <path d="M13.916-66.8945Q12.4512-65.4785 12.4512-63.5986Q12.4512-61.7188 13.916-60.3516L39.0625-35.7422Q40.4785-34.3262 42.2852-34.3262Q44.2383-34.3262 45.4346-35.5469Q46.6309-36.7676 46.6309-38.6719Q46.6309-40.4297 45.3613-41.6992L34.8633-51.8555L25.7812-59.7168L37.0605-59.2285L102.295-59.2285Q104.199-59.2285 105.42-60.4736Q106.641-61.7188 106.641-63.623Q106.641-65.5273 105.42-66.748Q104.199-67.9688 102.295-67.9688L37.0605-67.9688L25.7812-67.5293L34.8633-75.3418L45.3613-85.5469Q46.6309-86.7676 46.6309-88.5742Q46.6309-90.4785 45.4346-91.6748Q44.2383-92.8711 42.2852-92.8711Q40.4785-92.8711 39.0625-91.5039ZM105.225-3.51562Q106.689-4.93164 106.665-6.83594Q106.641-8.74023 105.225-10.1074L80.0781-34.7168Q78.6621-36.084 76.8066-36.084Q74.9023-36.084 73.7061-34.8877Q72.5098-33.6914 72.5098-31.7871Q72.5098-29.9805 73.7305-28.7598L84.2773-18.5547L93.3594-10.6934L82.0801-11.1816L16.8457-11.1816Q14.9414-11.1816 13.6963-9.96094Q12.4512-8.74023 12.4512-6.83594Q12.4512-4.88281 13.6963-3.66211Q14.9414-2.44141 16.8457-2.44141L82.0801-2.44141L93.3594-2.92969L84.2773 4.93164L73.7305 15.0879Q72.5098 16.3574 72.5098 18.1641Q72.5098 20.0684 73.7061 21.2646Q74.9023 22.4609 76.8066 22.4609Q78.6621 22.4609 80.0781 21.0938Z"/>
  </g>
  <g id="Light-M" transform="matrix(1 0 0 1 1094.69 1126)">
   <path d="M13.5529-65.7898Q12.4512-64.7064 12.4512-63.2809Q12.4512-61.8553 13.5529-60.8208L38.6086-36.0603Q39.7369-34.9464 41.1346-34.9464Q42.6033-34.9464 43.5196-35.8723Q44.4359-36.7981 44.4359-38.2332Q44.4359-39.6126 43.3937-40.6395L32.093-51.7189L22.6173-60.3371L33.5182-59.9854L101.099-59.9854Q102.519-59.9854 103.46-60.9203Q104.401-61.8553 104.401-63.3049Q104.401-64.7552 103.46-65.6734Q102.519-66.5916 101.099-66.5916L33.5182-66.5916L22.6173-66.2575L32.093-74.8573L43.3937-85.9711Q44.4359-86.9644 44.4359-88.3774Q44.4359-89.8125 43.5196-90.7211Q42.6033-91.6298 41.1346-91.6298Q39.7369-91.6298 38.6086-90.535ZM103.333-4.66614Q104.449-5.74875 104.425-7.18384Q104.401-8.61893 103.333-9.65347L78.2921-34.4139Q77.1637-35.5087 75.7172-35.5087Q74.2966-35.5087 73.3803-34.5924Q72.464-33.6761 72.464-32.2411Q72.464-30.8434 73.4581-29.8492L84.8068-18.721L94.2673-10.1028L83.3817-10.4706L15.786-10.4706Q14.3661-10.4706 13.4163-9.54475Q12.4664-8.61893 12.4664-7.18384Q12.4664-5.69992 13.4163-4.77448Q14.3661-3.84903 15.786-3.84903L83.3817-3.84903L94.2673-4.216L84.8068 4.40216L73.4581 15.4968Q72.464 16.5237 72.464 17.9222Q72.464 19.3573 73.3803 20.2732Q74.2966 21.1891 75.7172 21.1891Q77.1637 21.1891 78.2921 20.0951Z"/>
  </g>
  <g id="Thin-M" transform="matrix(1 0 0 1 799.471 1126)">
   <path d="M13.0722-64.328Q12.4512-63.6856 12.4512-62.8605Q12.4512-62.0354 13.0722-61.441L38.0081-36.4807Q38.7558-35.7674 39.6133-35.7674Q40.4419-35.7674 40.9878-36.3026Q41.5337-36.8378 41.5337-37.6526Q41.5337-38.5315 40.7913-39.2387L28.4302-51.5388L18.4341-61.158L28.8345-60.9863L99.5178-60.9863Q100.297-60.9863 100.867-61.5108Q101.437-62.0354 101.437-62.8845Q101.437-63.7344 100.867-64.2521Q100.297-64.7697 99.5178-64.7697L28.8345-64.7697L18.4341-64.576L28.4302-74.2172L40.7913-86.5311Q41.5337-87.2246 41.5337-88.1172Q41.5337-88.932 40.9878-89.4604Q40.4419-89.9887 39.6133-89.9887Q38.7558-89.9887 38.0081-89.254ZM100.83-6.18744Q101.486-6.82983 101.462-7.64427Q101.437-8.45871 100.83-9.05304L75.93-34.0134Q75.1816-34.7481 74.2752-34.7481Q73.4962-34.7481 72.9504-34.2022Q72.4045-33.6563 72.4045-32.8415Q72.4045-31.9839 73.098-31.2912L85.508-18.9415L95.4689-9.32236L85.1036-9.52911L14.3852-9.52911Q13.6055-9.52911 13.0459-8.99391Q12.4863-8.45871 12.4863-7.64465Q12.4863-6.78101 13.0459-6.2458Q13.6055-5.7106 14.3852-5.7106L85.1036-5.7106L95.4689-5.91812L85.508 3.70102L73.098 16.037Q72.4045 16.7442 72.4045 17.6018Q72.4045 18.4158 72.9504 18.9617Q73.4962 19.5076 74.2752 19.5076Q75.1816 19.5076 75.93 18.7737Z"/>
  </g>
  <g id="Ultralight-M" transform="matrix(1 0 0 1 503.524 1126)">
   <path d="M12.8265-63.5796Q12.4512-63.163 12.4512-62.6453Q12.4512-62.1277 12.8265-61.7592L37.6999-36.6959Q38.2538-36.1877 38.8344-36.1877Q39.3341-36.1877 39.6904-36.5231Q40.0467-36.8584 40.0467-37.355Q40.0467-37.9776 39.4577-38.5208L26.5533-51.4465L16.2903-61.5784L26.4343-61.499L98.7076-61.499Q99.1585-61.499 99.5392-61.8134Q99.9199-62.1277 99.9199-62.6694Q99.9199-63.2118 99.5392-63.5242Q99.1585-63.8367 98.7076-63.8367L26.4343-63.8367L16.2903-63.7146L26.5533-73.8884L39.4577-86.8187Q40.0467-87.3581 40.0467-87.9837Q40.0467-88.4804 39.6904-88.8138Q39.3341-89.1472 38.8344-89.1472Q38.2538-89.1472 37.6999-88.5979ZM99.5483-6.9664Q99.9687-7.38373 99.9443-7.8804Q99.9199-8.37708 99.5483-8.74481L74.72-33.8089Q74.1669-34.3582 73.5374-34.3582Q73.0858-34.3582 72.7295-34.0019Q72.3732-33.6456 72.3732-33.1497Q72.3732-32.5691 72.9134-32.029L85.8665-19.0544L96.0838-8.92258L85.9856-9.0477L13.6673-9.0477Q13.2156-9.0477 12.8563-8.71239Q12.4969-8.37708 12.4969-7.8804Q12.4969-7.3349 12.8563-6.99959Q13.2156-6.66428 13.6673-6.66428L85.9856-6.66428L96.0838-6.7894L85.8665 3.34244L72.9134 16.3139Q72.3732 16.8571 72.3732 17.4377Q72.3732 17.9344 72.7295 18.2903Q73.0858 18.6462 73.5374 18.6462Q74.1669 18.6462 74.72 18.0969Z"/>
  </g>
  <g id="Black-S" transform="matrix(1 0 0 1 2884.06 696)">
   <path d="M12.0117-62.8418Q9.76562-60.6934 9.76562-57.666Q9.76562-54.6387 12.0117-52.4902L31.7871-33.3008Q33.8867-31.2012 36.8164-31.2012Q39.8438-31.2012 41.8213-33.1787Q43.7988-35.1562 43.7988-38.1836Q43.7988-41.2109 41.7969-43.0664L33.8379-50.6348L33.8379-50.6348L38.7207-50.6348L81.8848-50.6348Q84.9121-50.6348 86.9141-52.6611Q88.916-54.6875 88.916-57.666Q88.916-60.6934 86.9141-62.6953Q84.9121-64.6973 81.8848-64.6973L38.7207-64.6973L33.8379-64.6973L33.8379-64.6973L41.7969-72.2656Q43.7988-74.1211 43.7988-77.1484Q43.7988-80.1758 41.8213-82.1533Q39.8438-84.1309 36.8164-84.1309Q33.8867-84.1309 31.7871-82.0312ZM86.6699-7.56836Q88.916-9.7168 88.916-12.7441Q88.916-15.7715 86.6699-17.9199L66.8945-37.1094Q64.7949-39.209 61.8652-39.209Q58.8379-39.209 56.8604-37.2314Q54.8828-35.2539 54.8828-32.2266Q54.8828-29.1992 56.8848-27.3438L64.8438-19.7754L64.8438-19.7754L59.9609-19.7754L16.7969-19.7754Q13.8184-19.7754 11.792-17.7734Q9.76562-15.7715 9.76562-12.7441Q9.76562-9.76562 11.792-7.73926Q13.8184-5.71289 16.7969-5.71289L59.9609-5.71289L64.8438-5.71289L64.8438-5.71289L56.8848 1.85547Q54.8828 3.71094 54.8828 6.73828Q54.8828 9.76562 56.8604 11.7432Q58.8379 13.7207 61.8652 13.7207Q64.7949 13.7207 66.8945 11.6211Z"/>
  </g>
  <g id="Heavy-S" transform="matrix(1 0 0 1 2587.85 696)">
   <path d="M11.7928-62.3001Q9.76562-60.3706 9.76562-57.6546Q9.76562-54.9385 11.7928-53.009L31.5681-33.8081Q33.4602-31.916 36.0786-31.916Q38.8069-31.916 40.5712-33.6803Q42.3355-35.4446 42.3355-38.1721Q42.3355-40.8539 40.5525-42.5362L32.6164-50.0931L30.9799-51.4526L36.8423-51.3496L81.6078-51.3496Q84.3361-51.3496 86.1248-53.1628Q87.9135-54.9759 87.9135-57.6546Q87.9135-60.3706 86.1248-62.1651Q84.3361-63.9595 81.6078-63.9595L36.8423-63.9595L30.9799-63.8557L32.6164-65.2161L40.5525-72.773Q42.3355-74.4553 42.3355-77.137Q42.3355-79.8645 40.5712-81.6288Q38.8069-83.3931 36.0786-83.3931Q33.4602-83.3931 31.5681-81.501ZM85.8864-8.11005Q87.9135-10.051 87.9135-12.7613Q87.9135-15.4716 85.8864-17.4126L66.111-36.602Q64.2189-38.4941 61.6005-38.4941Q58.8722-38.4941 57.1079-36.7298Q55.3436-34.9655 55.3436-32.238Q55.3436-29.5563 57.1266-27.874L65.0627-20.3285L66.6992-18.9575L60.8368-19.0605L16.0706-19.0605Q13.3919-19.0605 11.5788-17.2661Q9.76562-15.4716 9.76562-12.7556Q9.76562-10.0769 11.5788-8.26378Q13.3919-6.45065 16.0706-6.45065L60.8368-6.45065L66.6992-6.55441L65.0627-5.19409L57.1266 2.36282Q55.3436 4.0451 55.3436 6.72684Q55.3436 9.45435 57.1079 11.2186Q58.8722 12.9829 61.6005 12.9829Q64.2189 12.9829 66.111 11.0909Z"/>
  </g>
  <g id="Bold-S" transform="matrix(1 0 0 1 2291.7 696)">
   <path d="M11.5479-61.6943Q9.76562-60.0098 9.76562-57.6416Q9.76562-55.2734 11.5479-53.5889L31.3232-34.375Q32.9834-32.7148 35.2539-32.7148Q37.6465-32.7148 39.1724-34.2407Q40.6982-35.7666 40.6982-38.1592Q40.6982-40.4541 39.1602-41.9434L31.25-49.4873L27.7832-52.3682L34.7412-52.1484L81.2988-52.1484Q83.6914-52.1484 85.2417-53.7231Q86.792-55.2979 86.792-57.6416Q86.792-60.0098 85.2417-61.5723Q83.6914-63.1348 81.2988-63.1348L34.7412-63.1348L27.7832-62.915L31.25-65.7959L39.1602-73.3398Q40.6982-74.8291 40.6982-77.124Q40.6982-79.5166 39.1724-81.0425Q37.6465-82.5684 35.2539-82.5684Q32.9834-82.5684 31.3232-80.9082ZM85.0098-8.71582Q86.792-10.4248 86.792-12.7808Q86.792-15.1367 85.0098-16.8457L65.2344-36.0352Q63.5742-37.6953 61.3037-37.6953Q58.9111-37.6953 57.3853-36.1694Q55.8594-34.6436 55.8594-32.251Q55.8594-29.9561 57.3975-28.4668L65.3076-20.9473L68.7744-18.042L61.8164-18.2617L15.2588-18.2617Q12.915-18.2617 11.3403-16.6992Q9.76562-15.1367 9.76562-12.7686Q9.76562-10.4248 11.3403-8.8501Q12.915-7.27539 15.2588-7.27539L61.8164-7.27539L68.7744-7.49512L65.3076-4.61426L57.3975 2.92969Q55.8594 4.41895 55.8594 6.71387Q55.8594 9.10645 57.3853 10.6323Q58.9111 12.1582 61.3037 12.1582Q63.5742 12.1582 65.2344 10.498Z"/>
  </g>
  <g id="Semibold-S" transform="matrix(1 0 0 1 1995.37 696)">
   <path d="M11.3792-61.277Q9.76562-59.761 9.76562-57.6328Q9.76562-55.5046 11.3792-53.9886L31.1546-34.7664Q32.6546-33.2657 34.6855-33.2657Q36.8469-33.2657 38.2084-34.6272Q39.5699-35.9886 39.5699-38.15Q39.5699-40.1787 38.2004-41.5344L30.3078-49.07L25.5791-52.9991L33.2924-52.6993L81.0852-52.6993Q83.2474-52.6993 84.6333-54.1096Q86.0191-55.5199 86.0191-57.6324Q86.0191-59.761 84.6333-61.1637Q83.2474-62.5664 81.0852-62.5664L33.2924-62.5664L25.5791-62.2665L30.3078-66.1957L38.2004-73.7312Q39.5699-75.087 39.5699-77.1149Q39.5699-79.2763 38.2084-80.6381Q36.8469-82 34.6855-82Q32.6546-82 31.1546-80.4993ZM84.4055-9.13315Q86.0191-10.6827 86.0191-12.7941Q86.0191-14.9055 84.4055-16.4543L64.6301-35.6438Q63.1302-37.1445 61.0992-37.1445Q58.9378-37.1445 57.5764-35.783Q56.2149-34.4215 56.2149-32.2601Q56.2149-30.2315 57.5844-28.8757L65.4762-21.3737L70.2049-17.411L62.4916-17.7109L14.6988-17.7109Q12.5862-17.7109 11.1759-16.3082Q9.76562-14.9055 9.76562-12.7777Q9.76562-10.6651 11.1759-9.25484Q12.5862-7.84454 14.6988-7.84454L62.4916-7.84454L70.2049-8.14362L65.4762-4.21448L57.5844 3.32108Q56.2149 4.67682 56.2149 6.70471Q56.2149 8.86612 57.5764 10.228Q58.9378 11.5898 61.0992 11.5898Q63.1302 11.5898 64.6301 10.0891Z"/>
  </g>
  <g id="Medium-S" transform="matrix(1 0 0 1 1698.96 696)">
   <path d="M11.2511-60.9596Q9.76562-59.5726 9.76562-57.626Q9.76562-55.6793 11.2511-54.2923L31.0265-35.0624Q32.4051-33.6838 34.2537-33.6838Q36.2404-33.6838 37.4771-34.9205Q38.7138-36.1572 38.7138-38.1439Q38.7138-39.9696 37.4725-41.2247L29.5937-48.7526L23.9082-53.4775L32.1945-53.1174L80.9235-53.1174Q82.9102-53.1174 84.1713-54.4029Q85.4324-55.6885 85.4324-57.6263Q85.4324-59.5726 84.1713-60.8536Q82.9102-62.1346 80.9235-62.1346L32.1945-62.1346L23.9082-61.7744L29.5937-66.4993L37.4725-74.0273Q38.7138-75.2823 38.7138-77.1088Q38.7138-79.0947 37.4771-80.3314Q36.2404-81.5681 34.2537-81.5681Q32.4051-81.5681 31.0265-80.1895ZM83.947-9.45053Q85.4324-10.878 85.4324-12.8044Q85.4324-14.7308 83.947-16.1583L64.1716-35.3477Q62.793-36.7264 60.9444-36.7264Q58.9577-36.7264 57.7209-35.4897Q56.4842-34.2529 56.4842-32.2662Q56.4842-30.4405 57.7255-29.1855L65.6044-21.6972L71.2898-16.9327L63.0043-17.2928L14.2746-17.2928Q12.3367-17.2928 11.0512-16.0118Q9.76562-14.7308 9.76562-12.7838Q9.76562-10.8467 11.0512-9.56116Q12.3367-8.2756 14.2746-8.2756L63.0043-8.2756L71.2898-8.63571L65.6044-3.91083L57.7255 3.6171Q56.4842 4.87213 56.4842 6.69861Q56.4842 8.68454 57.7209 9.92126Q58.9577 11.158 60.9444 11.158Q62.793 11.158 64.1716 9.77936Z"/>
  </g>
  <g id="Regular-S" transform="matrix(1 0 0 1 1402.63 696)">
   <path d="M11.084-60.5469Q9.76562-59.3262 9.76562-57.6172Q9.76562-55.9082 11.084-54.6875L30.8594-35.4492Q32.0801-34.2285 33.6914-34.2285Q35.4492-34.2285 36.5234-35.3027Q37.5977-36.377 37.5977-38.1348Q37.5977-39.6973 36.5234-40.8203L28.6621-48.3398L21.7285-54.1016L30.7617-53.6621L80.7129-53.6621Q82.4707-53.6621 83.5693-54.7852Q84.668-55.9082 84.668-57.6172Q84.668-59.3262 83.5693-60.4492Q82.4707-61.5723 80.7129-61.5723L30.7617-61.5723L21.7285-61.1328L28.6621-66.8945L36.5234-74.4141Q37.5977-75.5371 37.5977-77.0996Q37.5977-78.8574 36.5234-79.9316Q35.4492-81.0059 33.6914-81.0059Q32.0801-81.0059 30.8594-79.7852ZM83.3496-9.86328Q84.668-11.1328 84.668-12.8174Q84.668-14.502 83.3496-15.7715L63.5742-34.9609Q62.3535-36.1816 60.7422-36.1816Q58.9844-36.1816 57.9102-35.1074Q56.8359-34.0332 56.8359-32.2754Q56.8359-30.7129 57.9102-29.5898L65.7715-22.1191L72.7051-16.3086L63.6719-16.748L13.7207-16.748Q12.0117-16.748 10.8887-15.625Q9.76562-14.502 9.76562-12.793Q9.76562-11.084 10.8887-9.96094Q12.0117-8.83789 13.7207-8.83789L63.6719-8.83789L72.7051-9.27734L65.7715-3.51562L57.9102 4.00391Q56.8359 5.12695 56.8359 6.68945Q56.8359 8.44727 57.9102 9.52148Q58.9844 10.5957 60.7422 10.5957Q62.3535 10.5957 63.5742 9.375Z"/>
  </g>
  <g id="Light-S" transform="matrix(1 0 0 1 1106.91 696)">
   <path d="M10.7658-59.5779Q9.76562-58.6296 9.76562-57.3296Q9.76562-56.0295 10.7658-55.1117L30.4504-35.7368Q31.414-34.7733 32.6775-34.7733Q34.0111-34.7733 34.8358-35.598Q35.6606-36.4227 35.6606-37.7411Q35.6606-38.9709 34.7824-39.8819L26.21-48.2185L18.9285-54.6616L27.6283-54.3282L79.6684-54.3282Q80.9875-54.3282 81.8363-55.1788Q82.6851-56.0295 82.6851-57.3448Q82.6851-58.6449 81.8363-59.4955Q80.9875-60.3462 79.6684-60.3462L27.6283-60.3462L18.9285-60.0128L26.21-66.4558L34.7824-74.8077Q35.6606-75.7034 35.6606-76.9333Q35.6606-78.2516 34.8358-79.0764Q34.0111-79.9011 32.6775-79.9011Q31.414-79.9011 30.4504-78.9375ZM81.6849-10.862Q82.6851-11.8439 82.6851-13.1275Q82.6851-14.4112 81.6849-15.3625L62.0003-34.7038Q61.0214-35.6667 59.7733-35.6667Q58.4396-35.6667 57.6149-34.8423Q56.7902-34.0179 56.7902-32.6996Q56.7902-31.4697 57.6683-30.5588L66.2407-22.2557L73.5222-15.7791L64.8224-16.1125L12.7823-16.1125Q11.4967-16.1125 10.6312-15.2618Q9.76562-14.4112 9.76562-13.0959Q9.76562-11.795 10.6312-10.9447Q11.4967-10.0945 12.7823-10.0945L64.8224-10.0945L73.5222-10.4279L66.2407-3.98483L57.6683 4.36707Q56.7902 5.26352 56.7902 6.49261Q56.7902 7.81174 57.6149 8.63609Q58.4396 9.46045 59.7733 9.46045Q61.0214 9.46045 62.0003 8.49686Z"/>
  </g>
  <g id="Thin-S" transform="matrix(1 0 0 1 811.508 696)">
   <path d="M10.3455-58.297Q9.76562-57.7087 9.76562-56.9492Q9.76562-56.1897 10.3455-55.6717L29.9103-36.1168Q30.5336-35.4942 31.3362-35.4942Q32.1098-35.4942 32.6038-35.9882Q33.0978-36.4822 33.0978-37.2208Q33.0978-38.0096 32.4806-38.6406L22.9668-48.0583L15.2252-55.4024L23.4848-55.2086L78.2875-55.2086Q79.0253-55.2086 79.5441-55.6992Q80.0629-56.1897 80.0629-56.9847Q80.0629-57.7438 79.5441-58.2344Q79.0253-58.725 78.2875-58.725L23.4848-58.725L15.2252-58.5312L22.9668-65.8752L32.4806-75.3281Q33.0978-75.9239 33.0978-76.7128Q33.0978-77.4513 32.6038-77.9453Q32.1098-78.4393 31.3362-78.4393Q30.5336-78.4393 29.9103-77.8168ZM79.4823-12.1834Q80.0629-12.7853 80.0629-13.5384Q80.0629-14.2914 79.4823-14.8224L59.9182-34.3636Q59.2598-34.9861 58.4923-34.9861Q57.7187-34.9861 57.2247-34.4921Q56.7307-33.9981 56.7307-33.2596Q56.7307-32.4707 57.3479-31.8398L66.861-22.4358L74.6033-15.078L66.3437-15.2718L11.541-15.2718Q10.8162-15.2718 10.2909-14.7816Q9.76562-14.2914 9.76562-13.4964Q9.76562-12.7365 10.2909-12.2459Q10.8162-11.7554 11.541-11.7554L66.3437-11.7554L74.6033-11.9492L66.861-4.6051L57.3479 4.84772Q56.7307 5.44357 56.7307 6.23245Q56.7307 6.97098 57.2247 7.46498Q57.7187 7.95898 58.4923 7.95898Q59.2598 7.95898 59.9182 7.33566Z"/>
  </g>
  <g id="Ultralight-S" transform="matrix(1 0 0 1 515.469 696)">
   <path d="M10.1303-57.6408Q9.76562-57.2372 9.76562-56.7543Q9.76562-56.2714 10.1303-55.9593L29.6333-36.3121Q30.0819-35.8635 30.6488-35.8635Q31.1356-35.8635 31.4606-36.1885Q31.7856-36.5135 31.7856-36.9537Q31.7856-37.5175 31.3011-38.0051L21.3058-47.9767L13.3278-55.7816L21.3615-55.6602L77.5795-55.6602Q78.0205-55.6602 78.3699-55.9658Q78.7193-56.2714 78.7193-56.8001Q78.7193-57.283 78.3699-57.5886Q78.0205-57.8941 77.5795-57.8941L21.3615-57.8941L13.3278-57.7728L21.3058-65.5777L31.3011-75.5951Q31.7856-76.0368 31.7856-76.5999Q31.7856-77.0409 31.4606-77.3659Q31.1356-77.6909 30.6488-77.6909Q30.0819-77.6909 29.6333-77.2423ZM78.3546-12.8601Q78.7193-13.2668 78.7193-13.7482Q78.7193-14.2296 78.3546-14.5454L58.8516-34.1888Q58.3572-34.6375 57.8362-34.6375Q57.3494-34.6375 57.0244-34.3124Q56.6994-33.9874 56.6994-33.5472Q56.6994-32.9834 57.1838-32.4959L67.1791-22.5281L75.1572-14.7194L67.1227-14.8407L10.9055-14.8407Q10.4675-14.8407 10.1166-14.5351Q9.76562-14.2296 9.76562-13.7009Q9.76562-13.2179 10.1166-12.9124Q10.4675-12.6068 10.9055-12.6068L67.1227-12.6068L75.1572-12.7281L67.1791-4.92325L57.1838 5.09338Q56.6994 5.53589 56.6994 6.09894Q56.6994 6.53992 57.0244 6.86493Q57.3494 7.18994 57.8362 7.18994Q58.3572 7.18994 58.8516 6.74133Z"/>
  </g>
 </g>
</svg>
